%TF.GenerationSoftware,KiCad,Pcbnew,(6.0.11)*%
%TF.CreationDate,2023-09-18T23:50:21-04:00*%
%TF.ProjectId,USB-C-Hub,5553422d-432d-4487-9562-2e6b69636164,1.0*%
%TF.SameCoordinates,Original*%
%TF.FileFunction,Legend,Top*%
%TF.FilePolarity,Positive*%
%FSLAX46Y46*%
G04 Gerber Fmt 4.6, Leading zero omitted, Abs format (unit mm)*
G04 Created by KiCad (PCBNEW (6.0.11)) date 2023-09-18 23:50:21*
%MOMM*%
%LPD*%
G01*
G04 APERTURE LIST*
%ADD10C,0.075000*%
%ADD11C,0.150000*%
%ADD12C,0.300000*%
%ADD13C,0.120000*%
%ADD14C,0.152400*%
%ADD15C,0.500000*%
%ADD16C,0.100000*%
%ADD17C,0.127000*%
%ADD18C,0.200000*%
G04 APERTURE END LIST*
D10*
X90499880Y-29440476D02*
X90523690Y-29369047D01*
X90523690Y-29250000D01*
X90499880Y-29202380D01*
X90476071Y-29178571D01*
X90428452Y-29154761D01*
X90380833Y-29154761D01*
X90333214Y-29178571D01*
X90309404Y-29202380D01*
X90285595Y-29250000D01*
X90261785Y-29345238D01*
X90237976Y-29392857D01*
X90214166Y-29416666D01*
X90166547Y-29440476D01*
X90118928Y-29440476D01*
X90071309Y-29416666D01*
X90047500Y-29392857D01*
X90023690Y-29345238D01*
X90023690Y-29226190D01*
X90047500Y-29154761D01*
X90523690Y-28940476D02*
X90023690Y-28940476D01*
X90023690Y-28750000D01*
X90047500Y-28702380D01*
X90071309Y-28678571D01*
X90118928Y-28654761D01*
X90190357Y-28654761D01*
X90237976Y-28678571D01*
X90261785Y-28702380D01*
X90285595Y-28750000D01*
X90285595Y-28940476D01*
X90523690Y-28440476D02*
X90023690Y-28440476D01*
X90571309Y-28321428D02*
X90571309Y-27940476D01*
X90476071Y-27535714D02*
X90499880Y-27559523D01*
X90523690Y-27630952D01*
X90523690Y-27678571D01*
X90499880Y-27750000D01*
X90452261Y-27797619D01*
X90404642Y-27821428D01*
X90309404Y-27845238D01*
X90237976Y-27845238D01*
X90142738Y-27821428D01*
X90095119Y-27797619D01*
X90047500Y-27750000D01*
X90023690Y-27678571D01*
X90023690Y-27630952D01*
X90047500Y-27559523D01*
X90071309Y-27535714D01*
X90261785Y-27321428D02*
X90261785Y-27154761D01*
X90523690Y-27083333D02*
X90523690Y-27321428D01*
X90023690Y-27321428D01*
X90023690Y-27083333D01*
X89999880Y-26511904D02*
X90642738Y-26940476D01*
X91281071Y-29261904D02*
X91304880Y-29285714D01*
X91328690Y-29357142D01*
X91328690Y-29404761D01*
X91304880Y-29476190D01*
X91257261Y-29523809D01*
X91209642Y-29547619D01*
X91114404Y-29571428D01*
X91042976Y-29571428D01*
X90947738Y-29547619D01*
X90900119Y-29523809D01*
X90852500Y-29476190D01*
X90828690Y-29404761D01*
X90828690Y-29357142D01*
X90852500Y-29285714D01*
X90876309Y-29261904D01*
X91066785Y-28880952D02*
X91066785Y-29047619D01*
X91328690Y-29047619D02*
X90828690Y-29047619D01*
X90828690Y-28809523D01*
X90852500Y-28357142D02*
X90828690Y-28404761D01*
X90828690Y-28476190D01*
X90852500Y-28547619D01*
X90900119Y-28595238D01*
X90947738Y-28619047D01*
X91042976Y-28642857D01*
X91114404Y-28642857D01*
X91209642Y-28619047D01*
X91257261Y-28595238D01*
X91304880Y-28547619D01*
X91328690Y-28476190D01*
X91328690Y-28428571D01*
X91304880Y-28357142D01*
X91281071Y-28333333D01*
X91114404Y-28333333D01*
X91114404Y-28428571D01*
X91376309Y-28238095D02*
X91376309Y-27857142D01*
X91328690Y-27452380D02*
X91090595Y-27619047D01*
X91328690Y-27738095D02*
X90828690Y-27738095D01*
X90828690Y-27547619D01*
X90852500Y-27500000D01*
X90876309Y-27476190D01*
X90923928Y-27452380D01*
X90995357Y-27452380D01*
X91042976Y-27476190D01*
X91066785Y-27500000D01*
X91090595Y-27547619D01*
X91090595Y-27738095D01*
X91066785Y-27238095D02*
X91066785Y-27071428D01*
X91328690Y-27000000D02*
X91328690Y-27238095D01*
X90828690Y-27238095D01*
X90828690Y-27000000D01*
X91328690Y-26785714D02*
X90828690Y-26785714D01*
X91185833Y-26619047D01*
X90828690Y-26452380D01*
X91328690Y-26452380D01*
D11*
X93552380Y-91119047D02*
X93552380Y-91690476D01*
X93552380Y-91404761D02*
X92552380Y-91404761D01*
X92695238Y-91500000D01*
X92790476Y-91595238D01*
X92838095Y-91690476D01*
X92552380Y-90833333D02*
X93552380Y-90500000D01*
X92552380Y-90166666D01*
X92647619Y-89880952D02*
X92600000Y-89833333D01*
X92552380Y-89738095D01*
X92552380Y-89500000D01*
X92600000Y-89404761D01*
X92647619Y-89357142D01*
X92742857Y-89309523D01*
X92838095Y-89309523D01*
X92980952Y-89357142D01*
X93552380Y-89928571D01*
X93552380Y-89309523D01*
X90052380Y-91738095D02*
X90052380Y-91119047D01*
X90433333Y-91452380D01*
X90433333Y-91309523D01*
X90480952Y-91214285D01*
X90528571Y-91166666D01*
X90623809Y-91119047D01*
X90861904Y-91119047D01*
X90957142Y-91166666D01*
X91004761Y-91214285D01*
X91052380Y-91309523D01*
X91052380Y-91595238D01*
X91004761Y-91690476D01*
X90957142Y-91738095D01*
X90052380Y-90833333D02*
X91052380Y-90500000D01*
X90052380Y-90166666D01*
X90052380Y-89928571D02*
X90052380Y-89309523D01*
X90433333Y-89642857D01*
X90433333Y-89500000D01*
X90480952Y-89404761D01*
X90528571Y-89357142D01*
X90623809Y-89309523D01*
X90861904Y-89309523D01*
X90957142Y-89357142D01*
X91004761Y-89404761D01*
X91052380Y-89500000D01*
X91052380Y-89785714D01*
X91004761Y-89880952D01*
X90957142Y-89928571D01*
X51769047Y-86471428D02*
X52530952Y-86471428D01*
X95100000Y-91161904D02*
X95052380Y-91257142D01*
X95052380Y-91400000D01*
X95100000Y-91542857D01*
X95195238Y-91638095D01*
X95290476Y-91685714D01*
X95480952Y-91733333D01*
X95623809Y-91733333D01*
X95814285Y-91685714D01*
X95909523Y-91638095D01*
X96004761Y-91542857D01*
X96052380Y-91400000D01*
X96052380Y-91304761D01*
X96004761Y-91161904D01*
X95957142Y-91114285D01*
X95623809Y-91114285D01*
X95623809Y-91304761D01*
X96052380Y-90685714D02*
X95052380Y-90685714D01*
X96052380Y-90114285D01*
X95052380Y-90114285D01*
X96052380Y-89638095D02*
X95052380Y-89638095D01*
X95052380Y-89400000D01*
X95100000Y-89257142D01*
X95195238Y-89161904D01*
X95290476Y-89114285D01*
X95480952Y-89066666D01*
X95623809Y-89066666D01*
X95814285Y-89114285D01*
X95909523Y-89161904D01*
X96004761Y-89257142D01*
X96052380Y-89400000D01*
X96052380Y-89638095D01*
D10*
X88426190Y-28926190D02*
X88188095Y-29092857D01*
X88426190Y-29211904D02*
X87926190Y-29211904D01*
X87926190Y-29021428D01*
X87950000Y-28973809D01*
X87973809Y-28950000D01*
X88021428Y-28926190D01*
X88092857Y-28926190D01*
X88140476Y-28950000D01*
X88164285Y-28973809D01*
X88188095Y-29021428D01*
X88188095Y-29211904D01*
X88164285Y-28711904D02*
X88164285Y-28545238D01*
X88426190Y-28473809D02*
X88426190Y-28711904D01*
X87926190Y-28711904D01*
X87926190Y-28473809D01*
X88402380Y-28283333D02*
X88426190Y-28211904D01*
X88426190Y-28092857D01*
X88402380Y-28045238D01*
X88378571Y-28021428D01*
X88330952Y-27997619D01*
X88283333Y-27997619D01*
X88235714Y-28021428D01*
X88211904Y-28045238D01*
X88188095Y-28092857D01*
X88164285Y-28188095D01*
X88140476Y-28235714D01*
X88116666Y-28259523D01*
X88069047Y-28283333D01*
X88021428Y-28283333D01*
X87973809Y-28259523D01*
X87950000Y-28235714D01*
X87926190Y-28188095D01*
X87926190Y-28069047D01*
X87950000Y-27997619D01*
X88164285Y-27783333D02*
X88164285Y-27616666D01*
X88426190Y-27545238D02*
X88426190Y-27783333D01*
X87926190Y-27783333D01*
X87926190Y-27545238D01*
X87926190Y-27402380D02*
X87926190Y-27116666D01*
X88426190Y-27259523D02*
X87926190Y-27259523D01*
X98099880Y-29566666D02*
X98123690Y-29495238D01*
X98123690Y-29376190D01*
X98099880Y-29328571D01*
X98076071Y-29304761D01*
X98028452Y-29280952D01*
X97980833Y-29280952D01*
X97933214Y-29304761D01*
X97909404Y-29328571D01*
X97885595Y-29376190D01*
X97861785Y-29471428D01*
X97837976Y-29519047D01*
X97814166Y-29542857D01*
X97766547Y-29566666D01*
X97718928Y-29566666D01*
X97671309Y-29542857D01*
X97647500Y-29519047D01*
X97623690Y-29471428D01*
X97623690Y-29352380D01*
X97647500Y-29280952D01*
X98123690Y-29066666D02*
X97623690Y-29066666D01*
X97623690Y-28876190D01*
X97647500Y-28828571D01*
X97671309Y-28804761D01*
X97718928Y-28780952D01*
X97790357Y-28780952D01*
X97837976Y-28804761D01*
X97861785Y-28828571D01*
X97885595Y-28876190D01*
X97885595Y-29066666D01*
X98123690Y-28566666D02*
X97623690Y-28566666D01*
X98171309Y-28447619D02*
X98171309Y-28066666D01*
X98076071Y-27661904D02*
X98099880Y-27685714D01*
X98123690Y-27757142D01*
X98123690Y-27804761D01*
X98099880Y-27876190D01*
X98052261Y-27923809D01*
X98004642Y-27947619D01*
X97909404Y-27971428D01*
X97837976Y-27971428D01*
X97742738Y-27947619D01*
X97695119Y-27923809D01*
X97647500Y-27876190D01*
X97623690Y-27804761D01*
X97623690Y-27757142D01*
X97647500Y-27685714D01*
X97671309Y-27661904D01*
X98123690Y-27209523D02*
X98123690Y-27447619D01*
X97623690Y-27447619D01*
X98123690Y-27042857D02*
X97623690Y-27042857D01*
X98123690Y-26757142D02*
X97837976Y-26971428D01*
X97623690Y-26757142D02*
X97909404Y-27042857D01*
X97599880Y-26185714D02*
X98242738Y-26614285D01*
X98904880Y-29030952D02*
X98928690Y-28959523D01*
X98928690Y-28840476D01*
X98904880Y-28792857D01*
X98881071Y-28769047D01*
X98833452Y-28745238D01*
X98785833Y-28745238D01*
X98738214Y-28769047D01*
X98714404Y-28792857D01*
X98690595Y-28840476D01*
X98666785Y-28935714D01*
X98642976Y-28983333D01*
X98619166Y-29007142D01*
X98571547Y-29030952D01*
X98523928Y-29030952D01*
X98476309Y-29007142D01*
X98452500Y-28983333D01*
X98428690Y-28935714D01*
X98428690Y-28816666D01*
X98452500Y-28745238D01*
X98928690Y-28530952D02*
X98428690Y-28530952D01*
X98785833Y-28364285D01*
X98428690Y-28197619D01*
X98928690Y-28197619D01*
X98881071Y-27673809D02*
X98904880Y-27697619D01*
X98928690Y-27769047D01*
X98928690Y-27816666D01*
X98904880Y-27888095D01*
X98857261Y-27935714D01*
X98809642Y-27959523D01*
X98714404Y-27983333D01*
X98642976Y-27983333D01*
X98547738Y-27959523D01*
X98500119Y-27935714D01*
X98452500Y-27888095D01*
X98428690Y-27816666D01*
X98428690Y-27769047D01*
X98452500Y-27697619D01*
X98476309Y-27673809D01*
X98928690Y-27221428D02*
X98928690Y-27459523D01*
X98428690Y-27459523D01*
X98928690Y-27054761D02*
X98428690Y-27054761D01*
X98928690Y-26769047D02*
X98642976Y-26983333D01*
X98428690Y-26769047D02*
X98714404Y-27054761D01*
X93099880Y-29433333D02*
X93123690Y-29361904D01*
X93123690Y-29242857D01*
X93099880Y-29195238D01*
X93076071Y-29171428D01*
X93028452Y-29147619D01*
X92980833Y-29147619D01*
X92933214Y-29171428D01*
X92909404Y-29195238D01*
X92885595Y-29242857D01*
X92861785Y-29338095D01*
X92837976Y-29385714D01*
X92814166Y-29409523D01*
X92766547Y-29433333D01*
X92718928Y-29433333D01*
X92671309Y-29409523D01*
X92647500Y-29385714D01*
X92623690Y-29338095D01*
X92623690Y-29219047D01*
X92647500Y-29147619D01*
X93123690Y-28933333D02*
X92623690Y-28933333D01*
X92623690Y-28742857D01*
X92647500Y-28695238D01*
X92671309Y-28671428D01*
X92718928Y-28647619D01*
X92790357Y-28647619D01*
X92837976Y-28671428D01*
X92861785Y-28695238D01*
X92885595Y-28742857D01*
X92885595Y-28933333D01*
X93123690Y-28433333D02*
X92623690Y-28433333D01*
X93171309Y-28314285D02*
X93171309Y-27933333D01*
X93123690Y-27814285D02*
X92623690Y-27814285D01*
X92623690Y-27695238D01*
X92647500Y-27623809D01*
X92695119Y-27576190D01*
X92742738Y-27552380D01*
X92837976Y-27528571D01*
X92909404Y-27528571D01*
X93004642Y-27552380D01*
X93052261Y-27576190D01*
X93099880Y-27623809D01*
X93123690Y-27695238D01*
X93123690Y-27814285D01*
X93123690Y-27314285D02*
X92623690Y-27314285D01*
X92599880Y-26719047D02*
X93242738Y-27147619D01*
X93881071Y-29100000D02*
X93904880Y-29123809D01*
X93928690Y-29195238D01*
X93928690Y-29242857D01*
X93904880Y-29314285D01*
X93857261Y-29361904D01*
X93809642Y-29385714D01*
X93714404Y-29409523D01*
X93642976Y-29409523D01*
X93547738Y-29385714D01*
X93500119Y-29361904D01*
X93452500Y-29314285D01*
X93428690Y-29242857D01*
X93428690Y-29195238D01*
X93452500Y-29123809D01*
X93476309Y-29100000D01*
X93666785Y-28719047D02*
X93666785Y-28885714D01*
X93928690Y-28885714D02*
X93428690Y-28885714D01*
X93428690Y-28647619D01*
X93452500Y-28195238D02*
X93428690Y-28242857D01*
X93428690Y-28314285D01*
X93452500Y-28385714D01*
X93500119Y-28433333D01*
X93547738Y-28457142D01*
X93642976Y-28480952D01*
X93714404Y-28480952D01*
X93809642Y-28457142D01*
X93857261Y-28433333D01*
X93904880Y-28385714D01*
X93928690Y-28314285D01*
X93928690Y-28266666D01*
X93904880Y-28195238D01*
X93881071Y-28171428D01*
X93714404Y-28171428D01*
X93714404Y-28266666D01*
X93976309Y-28076190D02*
X93976309Y-27695238D01*
X93666785Y-27409523D02*
X93690595Y-27338095D01*
X93714404Y-27314285D01*
X93762023Y-27290476D01*
X93833452Y-27290476D01*
X93881071Y-27314285D01*
X93904880Y-27338095D01*
X93928690Y-27385714D01*
X93928690Y-27576190D01*
X93428690Y-27576190D01*
X93428690Y-27409523D01*
X93452500Y-27361904D01*
X93476309Y-27338095D01*
X93523928Y-27314285D01*
X93571547Y-27314285D01*
X93619166Y-27338095D01*
X93642976Y-27361904D01*
X93666785Y-27409523D01*
X93666785Y-27576190D01*
X93881071Y-26790476D02*
X93904880Y-26814285D01*
X93928690Y-26885714D01*
X93928690Y-26933333D01*
X93904880Y-27004761D01*
X93857261Y-27052380D01*
X93809642Y-27076190D01*
X93714404Y-27100000D01*
X93642976Y-27100000D01*
X93547738Y-27076190D01*
X93500119Y-27052380D01*
X93452500Y-27004761D01*
X93428690Y-26933333D01*
X93428690Y-26885714D01*
X93452500Y-26814285D01*
X93476309Y-26790476D01*
D11*
X57769047Y-86446428D02*
X58530952Y-86446428D01*
X58150000Y-86827380D02*
X58150000Y-86065476D01*
D12*
X116742857Y-28978571D02*
X116742857Y-27478571D01*
X118100000Y-28978571D02*
X118100000Y-28192857D01*
X118028571Y-28050000D01*
X117885714Y-27978571D01*
X117600000Y-27978571D01*
X117457142Y-28050000D01*
X118100000Y-28907142D02*
X117957142Y-28978571D01*
X117600000Y-28978571D01*
X117457142Y-28907142D01*
X117385714Y-28764285D01*
X117385714Y-28621428D01*
X117457142Y-28478571D01*
X117600000Y-28407142D01*
X117957142Y-28407142D01*
X118100000Y-28335714D01*
X118814285Y-27978571D02*
X118814285Y-28978571D01*
X118814285Y-28121428D02*
X118885714Y-28050000D01*
X119028571Y-27978571D01*
X119242857Y-27978571D01*
X119385714Y-28050000D01*
X119457142Y-28192857D01*
X119457142Y-28978571D01*
X120242857Y-27478571D02*
X120100000Y-27764285D01*
X120814285Y-28907142D02*
X120957142Y-28978571D01*
X121242857Y-28978571D01*
X121385714Y-28907142D01*
X121457142Y-28764285D01*
X121457142Y-28692857D01*
X121385714Y-28550000D01*
X121242857Y-28478571D01*
X121028571Y-28478571D01*
X120885714Y-28407142D01*
X120814285Y-28264285D01*
X120814285Y-28192857D01*
X120885714Y-28050000D01*
X121028571Y-27978571D01*
X121242857Y-27978571D01*
X121385714Y-28050000D01*
X123242857Y-27478571D02*
X123242857Y-28692857D01*
X123314285Y-28835714D01*
X123385714Y-28907142D01*
X123528571Y-28978571D01*
X123814285Y-28978571D01*
X123957142Y-28907142D01*
X124028571Y-28835714D01*
X124100000Y-28692857D01*
X124100000Y-27478571D01*
X124742857Y-28907142D02*
X124957142Y-28978571D01*
X125314285Y-28978571D01*
X125457142Y-28907142D01*
X125528571Y-28835714D01*
X125600000Y-28692857D01*
X125600000Y-28550000D01*
X125528571Y-28407142D01*
X125457142Y-28335714D01*
X125314285Y-28264285D01*
X125028571Y-28192857D01*
X124885714Y-28121428D01*
X124814285Y-28050000D01*
X124742857Y-27907142D01*
X124742857Y-27764285D01*
X124814285Y-27621428D01*
X124885714Y-27550000D01*
X125028571Y-27478571D01*
X125385714Y-27478571D01*
X125600000Y-27550000D01*
X126742857Y-28192857D02*
X126957142Y-28264285D01*
X127028571Y-28335714D01*
X127100000Y-28478571D01*
X127100000Y-28692857D01*
X127028571Y-28835714D01*
X126957142Y-28907142D01*
X126814285Y-28978571D01*
X126242857Y-28978571D01*
X126242857Y-27478571D01*
X126742857Y-27478571D01*
X126885714Y-27550000D01*
X126957142Y-27621428D01*
X127028571Y-27764285D01*
X127028571Y-27907142D01*
X126957142Y-28050000D01*
X126885714Y-28121428D01*
X126742857Y-28192857D01*
X126242857Y-28192857D01*
X128885714Y-28978571D02*
X128885714Y-27478571D01*
X128885714Y-28192857D02*
X129742857Y-28192857D01*
X129742857Y-28978571D02*
X129742857Y-27478571D01*
X131100000Y-27978571D02*
X131100000Y-28978571D01*
X130457142Y-27978571D02*
X130457142Y-28764285D01*
X130528571Y-28907142D01*
X130671428Y-28978571D01*
X130885714Y-28978571D01*
X131028571Y-28907142D01*
X131100000Y-28835714D01*
X131814285Y-28978571D02*
X131814285Y-27478571D01*
X131814285Y-28050000D02*
X131957142Y-27978571D01*
X132242857Y-27978571D01*
X132385714Y-28050000D01*
X132457142Y-28121428D01*
X132528571Y-28264285D01*
X132528571Y-28692857D01*
X132457142Y-28835714D01*
X132385714Y-28907142D01*
X132242857Y-28978571D01*
X131957142Y-28978571D01*
X131814285Y-28907142D01*
D11*
X51772619Y-73202380D02*
X51296428Y-73202380D01*
X51248809Y-73678571D01*
X51296428Y-73630952D01*
X51391666Y-73583333D01*
X51629761Y-73583333D01*
X51725000Y-73630952D01*
X51772619Y-73678571D01*
X51820238Y-73773809D01*
X51820238Y-74011904D01*
X51772619Y-74107142D01*
X51725000Y-74154761D01*
X51629761Y-74202380D01*
X51391666Y-74202380D01*
X51296428Y-74154761D01*
X51248809Y-74107142D01*
X52105952Y-73202380D02*
X52439285Y-74202380D01*
X52772619Y-73202380D01*
X53867857Y-74202380D02*
X53867857Y-73535714D01*
X53867857Y-73202380D02*
X53820238Y-73250000D01*
X53867857Y-73297619D01*
X53915476Y-73250000D01*
X53867857Y-73202380D01*
X53867857Y-73297619D01*
X54344047Y-73535714D02*
X54344047Y-74202380D01*
X54344047Y-73630952D02*
X54391666Y-73583333D01*
X54486904Y-73535714D01*
X54629761Y-73535714D01*
X54725000Y-73583333D01*
X54772619Y-73678571D01*
X54772619Y-74202380D01*
X55248809Y-73535714D02*
X55248809Y-74535714D01*
X55248809Y-73583333D02*
X55344047Y-73535714D01*
X55534523Y-73535714D01*
X55629761Y-73583333D01*
X55677380Y-73630952D01*
X55725000Y-73726190D01*
X55725000Y-74011904D01*
X55677380Y-74107142D01*
X55629761Y-74154761D01*
X55534523Y-74202380D01*
X55344047Y-74202380D01*
X55248809Y-74154761D01*
X56582142Y-73535714D02*
X56582142Y-74202380D01*
X56153571Y-73535714D02*
X56153571Y-74059523D01*
X56201190Y-74154761D01*
X56296428Y-74202380D01*
X56439285Y-74202380D01*
X56534523Y-74154761D01*
X56582142Y-74107142D01*
X56915476Y-73535714D02*
X57296428Y-73535714D01*
X57058333Y-73202380D02*
X57058333Y-74059523D01*
X57105952Y-74154761D01*
X57201190Y-74202380D01*
X57296428Y-74202380D01*
X87452380Y-91190476D02*
X87452380Y-91666666D01*
X87928571Y-91714285D01*
X87880952Y-91666666D01*
X87833333Y-91571428D01*
X87833333Y-91333333D01*
X87880952Y-91238095D01*
X87928571Y-91190476D01*
X88023809Y-91142857D01*
X88261904Y-91142857D01*
X88357142Y-91190476D01*
X88404761Y-91238095D01*
X88452380Y-91333333D01*
X88452380Y-91571428D01*
X88404761Y-91666666D01*
X88357142Y-91714285D01*
X87452380Y-90857142D02*
X88452380Y-90523809D01*
X87452380Y-90190476D01*
D10*
X95499880Y-29476190D02*
X95523690Y-29404761D01*
X95523690Y-29285714D01*
X95499880Y-29238095D01*
X95476071Y-29214285D01*
X95428452Y-29190476D01*
X95380833Y-29190476D01*
X95333214Y-29214285D01*
X95309404Y-29238095D01*
X95285595Y-29285714D01*
X95261785Y-29380952D01*
X95237976Y-29428571D01*
X95214166Y-29452380D01*
X95166547Y-29476190D01*
X95118928Y-29476190D01*
X95071309Y-29452380D01*
X95047500Y-29428571D01*
X95023690Y-29380952D01*
X95023690Y-29261904D01*
X95047500Y-29190476D01*
X95523690Y-28976190D02*
X95023690Y-28976190D01*
X95023690Y-28785714D01*
X95047500Y-28738095D01*
X95071309Y-28714285D01*
X95118928Y-28690476D01*
X95190357Y-28690476D01*
X95237976Y-28714285D01*
X95261785Y-28738095D01*
X95285595Y-28785714D01*
X95285595Y-28976190D01*
X95523690Y-28476190D02*
X95023690Y-28476190D01*
X95571309Y-28357142D02*
X95571309Y-27976190D01*
X95523690Y-27857142D02*
X95023690Y-27857142D01*
X95023690Y-27738095D01*
X95047500Y-27666666D01*
X95095119Y-27619047D01*
X95142738Y-27595238D01*
X95237976Y-27571428D01*
X95309404Y-27571428D01*
X95404642Y-27595238D01*
X95452261Y-27619047D01*
X95499880Y-27666666D01*
X95523690Y-27738095D01*
X95523690Y-27857142D01*
X95023690Y-27261904D02*
X95023690Y-27166666D01*
X95047500Y-27119047D01*
X95095119Y-27071428D01*
X95190357Y-27047619D01*
X95357023Y-27047619D01*
X95452261Y-27071428D01*
X95499880Y-27119047D01*
X95523690Y-27166666D01*
X95523690Y-27261904D01*
X95499880Y-27309523D01*
X95452261Y-27357142D01*
X95357023Y-27380952D01*
X95190357Y-27380952D01*
X95095119Y-27357142D01*
X95047500Y-27309523D01*
X95023690Y-27261904D01*
X94999880Y-26476190D02*
X95642738Y-26904761D01*
X96304880Y-29083333D02*
X96328690Y-29011904D01*
X96328690Y-28892857D01*
X96304880Y-28845238D01*
X96281071Y-28821428D01*
X96233452Y-28797619D01*
X96185833Y-28797619D01*
X96138214Y-28821428D01*
X96114404Y-28845238D01*
X96090595Y-28892857D01*
X96066785Y-28988095D01*
X96042976Y-29035714D01*
X96019166Y-29059523D01*
X95971547Y-29083333D01*
X95923928Y-29083333D01*
X95876309Y-29059523D01*
X95852500Y-29035714D01*
X95828690Y-28988095D01*
X95828690Y-28869047D01*
X95852500Y-28797619D01*
X96328690Y-28583333D02*
X95828690Y-28583333D01*
X96185833Y-28416666D01*
X95828690Y-28250000D01*
X96328690Y-28250000D01*
X96328690Y-28011904D02*
X95828690Y-28011904D01*
X95828690Y-27892857D01*
X95852500Y-27821428D01*
X95900119Y-27773809D01*
X95947738Y-27750000D01*
X96042976Y-27726190D01*
X96114404Y-27726190D01*
X96209642Y-27750000D01*
X96257261Y-27773809D01*
X96304880Y-27821428D01*
X96328690Y-27892857D01*
X96328690Y-28011904D01*
X96185833Y-27535714D02*
X96185833Y-27297619D01*
X96328690Y-27583333D02*
X95828690Y-27416666D01*
X96328690Y-27250000D01*
X95828690Y-27154761D02*
X95828690Y-26869047D01*
X96328690Y-27011904D02*
X95828690Y-27011904D01*
D11*
%TO.C,U1*%
X94672381Y-55146400D02*
X94910477Y-55146400D01*
X94815239Y-55384495D02*
X94910477Y-55146400D01*
X94815239Y-54908304D01*
X95100953Y-55289257D02*
X94910477Y-55146400D01*
X95100953Y-55003542D01*
%TO.C,U7*%
X118700000Y-49447619D02*
X118700000Y-49209523D01*
X118938095Y-49304761D02*
X118700000Y-49209523D01*
X118461904Y-49304761D01*
X118842857Y-49019047D02*
X118700000Y-49209523D01*
X118557142Y-49019047D01*
%TO.C,U4*%
X118800000Y-84947619D02*
X118800000Y-84709523D01*
X119038095Y-84804761D02*
X118800000Y-84709523D01*
X118561904Y-84804761D01*
X118942857Y-84519047D02*
X118800000Y-84709523D01*
X118657142Y-84519047D01*
%TO.C,U2*%
X75353333Y-63802380D02*
X75353333Y-64611904D01*
X75400952Y-64707142D01*
X75448571Y-64754761D01*
X75543809Y-64802380D01*
X75734285Y-64802380D01*
X75829523Y-64754761D01*
X75877142Y-64707142D01*
X75924761Y-64611904D01*
X75924761Y-63802380D01*
X76258095Y-63802380D02*
X76829523Y-63802380D01*
X76543809Y-64802380D02*
X76543809Y-63802380D01*
X77734285Y-64707142D02*
X77686666Y-64754761D01*
X77543809Y-64802380D01*
X77448571Y-64802380D01*
X77305714Y-64754761D01*
X77210476Y-64659523D01*
X77162857Y-64564285D01*
X77115238Y-64373809D01*
X77115238Y-64230952D01*
X77162857Y-64040476D01*
X77210476Y-63945238D01*
X77305714Y-63850000D01*
X77448571Y-63802380D01*
X77543809Y-63802380D01*
X77686666Y-63850000D01*
X77734285Y-63897619D01*
X78115238Y-63897619D02*
X78162857Y-63850000D01*
X78258095Y-63802380D01*
X78496190Y-63802380D01*
X78591428Y-63850000D01*
X78639047Y-63897619D01*
X78686666Y-63992857D01*
X78686666Y-64088095D01*
X78639047Y-64230952D01*
X78067619Y-64802380D01*
X78686666Y-64802380D01*
X79305714Y-63802380D02*
X79400952Y-63802380D01*
X79496190Y-63850000D01*
X79543809Y-63897619D01*
X79591428Y-63992857D01*
X79639047Y-64183333D01*
X79639047Y-64421428D01*
X79591428Y-64611904D01*
X79543809Y-64707142D01*
X79496190Y-64754761D01*
X79400952Y-64802380D01*
X79305714Y-64802380D01*
X79210476Y-64754761D01*
X79162857Y-64707142D01*
X79115238Y-64611904D01*
X79067619Y-64421428D01*
X79067619Y-64183333D01*
X79115238Y-63992857D01*
X79162857Y-63897619D01*
X79210476Y-63850000D01*
X79305714Y-63802380D01*
X80258095Y-63802380D02*
X80353333Y-63802380D01*
X80448571Y-63850000D01*
X80496190Y-63897619D01*
X80543809Y-63992857D01*
X80591428Y-64183333D01*
X80591428Y-64421428D01*
X80543809Y-64611904D01*
X80496190Y-64707142D01*
X80448571Y-64754761D01*
X80353333Y-64802380D01*
X80258095Y-64802380D01*
X80162857Y-64754761D01*
X80115238Y-64707142D01*
X80067619Y-64611904D01*
X80020000Y-64421428D01*
X80020000Y-64183333D01*
X80067619Y-63992857D01*
X80115238Y-63897619D01*
X80162857Y-63850000D01*
X80258095Y-63802380D01*
X81210476Y-63802380D02*
X81305714Y-63802380D01*
X81400952Y-63850000D01*
X81448571Y-63897619D01*
X81496190Y-63992857D01*
X81543809Y-64183333D01*
X81543809Y-64421428D01*
X81496190Y-64611904D01*
X81448571Y-64707142D01*
X81400952Y-64754761D01*
X81305714Y-64802380D01*
X81210476Y-64802380D01*
X81115238Y-64754761D01*
X81067619Y-64707142D01*
X81020000Y-64611904D01*
X80972380Y-64421428D01*
X80972380Y-64183333D01*
X81020000Y-63992857D01*
X81067619Y-63897619D01*
X81115238Y-63850000D01*
X81210476Y-63802380D01*
X82686666Y-63754761D02*
X81829523Y-65040476D01*
X83020000Y-64802380D02*
X83020000Y-63802380D01*
X83353333Y-64516666D01*
X83686666Y-63802380D01*
X83686666Y-64802380D01*
X84686666Y-63850000D02*
X84591428Y-63802380D01*
X84448571Y-63802380D01*
X84305714Y-63850000D01*
X84210476Y-63945238D01*
X84162857Y-64040476D01*
X84115238Y-64230952D01*
X84115238Y-64373809D01*
X84162857Y-64564285D01*
X84210476Y-64659523D01*
X84305714Y-64754761D01*
X84448571Y-64802380D01*
X84543809Y-64802380D01*
X84686666Y-64754761D01*
X84734285Y-64707142D01*
X84734285Y-64373809D01*
X84543809Y-64373809D01*
X77581600Y-59852380D02*
X77581600Y-60090476D01*
X77343504Y-59995238D02*
X77581600Y-60090476D01*
X77819695Y-59995238D01*
X77438742Y-60280952D02*
X77581600Y-60090476D01*
X77724457Y-60280952D01*
D13*
%TO.C,C8*%
X68230000Y-44709420D02*
X68230000Y-44990580D01*
X67210000Y-44709420D02*
X67210000Y-44990580D01*
%TO.C,C45*%
X120230000Y-49209420D02*
X120230000Y-49490580D01*
X119210000Y-49209420D02*
X119210000Y-49490580D01*
%TO.C,R8*%
X78880000Y-30638205D02*
X78880000Y-30945487D01*
X79640000Y-30638205D02*
X79640000Y-30945487D01*
%TO.C,C35*%
X102612165Y-47886400D02*
X102827837Y-47886400D01*
X102612165Y-48606400D02*
X102827837Y-48606400D01*
%TO.C,C39*%
X131415563Y-49490000D02*
X132480000Y-50554437D01*
X130505000Y-48625000D02*
X129255000Y-48625000D01*
X129880000Y-48000000D02*
X129880000Y-49250000D01*
X122824437Y-49490000D02*
X121760000Y-50554437D01*
X121760000Y-60210000D02*
X125610000Y-60210000D01*
X132480000Y-50554437D02*
X132480000Y-60210000D01*
X131415563Y-49490000D02*
X128630000Y-49490000D01*
X132480000Y-60210000D02*
X128630000Y-60210000D01*
X122824437Y-49490000D02*
X125610000Y-49490000D01*
X121760000Y-50554437D02*
X121760000Y-60210000D01*
%TO.C,Rlimit1*%
X119791659Y-82270000D02*
X120098941Y-82270000D01*
X119791659Y-83030000D02*
X120098941Y-83030000D01*
%TO.C,C23*%
X108530001Y-75090580D02*
X108530001Y-74809420D01*
X107510001Y-75090580D02*
X107510001Y-74809420D01*
%TO.C,SW1*%
X75850000Y-36080000D02*
X75850000Y-36050000D01*
X69390000Y-31550000D02*
X69390000Y-34150000D01*
X75850000Y-29620000D02*
X75850000Y-29650000D01*
X69390000Y-29650000D02*
X69390000Y-29620000D01*
X75850000Y-31550000D02*
X75850000Y-34150000D01*
X69390000Y-36080000D02*
X75850000Y-36080000D01*
X69390000Y-29620000D02*
X75850000Y-29620000D01*
X69390000Y-36080000D02*
X69390000Y-36050000D01*
D14*
%TO.C,U1*%
X93987800Y-47217800D02*
X93987800Y-47815660D01*
X101252200Y-47815660D02*
X101252200Y-47217800D01*
X100654340Y-54482200D02*
X101252200Y-54482200D01*
X94585660Y-47217800D02*
X93987800Y-47217800D01*
X93987800Y-54482200D02*
X94585660Y-54482200D01*
X101252200Y-54482200D02*
X101252200Y-53884340D01*
X93987800Y-53884340D02*
X93987800Y-54482200D01*
X101252200Y-47217800D02*
X100654340Y-47217800D01*
G36*
X93556000Y-51240500D02*
G01*
X93302000Y-51240500D01*
X93302000Y-50859500D01*
X93556000Y-50859500D01*
X93556000Y-51240500D01*
G37*
G36*
X100010501Y-46786000D02*
G01*
X99629501Y-46786000D01*
X99629501Y-46532000D01*
X100010501Y-46532000D01*
X100010501Y-46786000D01*
G37*
G36*
X96010501Y-46786000D02*
G01*
X95629501Y-46786000D01*
X95629501Y-46532000D01*
X96010501Y-46532000D01*
X96010501Y-46786000D01*
G37*
G36*
X98810501Y-55168000D02*
G01*
X98429501Y-55168000D01*
X98429501Y-54914000D01*
X98810501Y-54914000D01*
X98810501Y-55168000D01*
G37*
G36*
X101938000Y-51640499D02*
G01*
X101684000Y-51640499D01*
X101684000Y-51259499D01*
X101938000Y-51259499D01*
X101938000Y-51640499D01*
G37*
D13*
%TO.C,D3*%
X66420000Y-61650000D02*
X64570000Y-61650000D01*
X64570000Y-61650000D02*
X64570000Y-62850000D01*
X66420000Y-62850000D02*
X64570000Y-62850000D01*
%TO.C,CR1*%
X65980000Y-53950000D02*
X64680000Y-53950000D01*
X65980000Y-56750000D02*
X64980000Y-56750000D01*
%TO.C,R16*%
X93400000Y-57096359D02*
X93400000Y-57403641D01*
X92640000Y-57096359D02*
X92640000Y-57403641D01*
%TO.C,D2*%
X64020000Y-48050000D02*
X62170000Y-48050000D01*
X64020000Y-49250000D02*
X62170000Y-49250000D01*
X62170000Y-48050000D02*
X62170000Y-49250000D01*
%TO.C,R18*%
X55500000Y-62196359D02*
X55500000Y-62503641D01*
X54740000Y-62196359D02*
X54740000Y-62503641D01*
%TO.C,CR4*%
X124820000Y-70550000D02*
X125820000Y-70550000D01*
X124820000Y-73350000D02*
X126120000Y-73350000D01*
%TO.C,C13*%
X67762164Y-52560000D02*
X67977836Y-52560000D01*
X67762164Y-51840000D02*
X67977836Y-51840000D01*
%TO.C,R20*%
X61453641Y-72420000D02*
X61146359Y-72420000D01*
X61453641Y-73180000D02*
X61146359Y-73180000D01*
D11*
%TO.C,REF\u002A\u002A*%
X55150000Y-86450000D02*
X57150000Y-86450000D01*
X53150000Y-86450000D02*
X54050000Y-86450000D01*
X55825000Y-85700000D02*
G75*
G03*
X55900000Y-87125000I-675000J-750000D01*
G01*
X59075000Y-86450000D02*
G75*
G03*
X59075000Y-86450000I-925000J0D01*
G01*
D15*
X55325000Y-86450000D02*
G75*
G03*
X55325000Y-86450000I-175000J0D01*
G01*
D11*
X53075000Y-86450000D02*
G75*
G03*
X53075000Y-86450000I-925000J0D01*
G01*
D13*
%TO.C,C24*%
X105060581Y-68440000D02*
X104779421Y-68440000D01*
X105060581Y-69460000D02*
X104779421Y-69460000D01*
%TO.C,C41*%
X92027836Y-50490000D02*
X91812164Y-50490000D01*
X92027836Y-51210000D02*
X91812164Y-51210000D01*
%TO.C,C4*%
X122962164Y-75560000D02*
X123177836Y-75560000D01*
X122962164Y-74840000D02*
X123177836Y-74840000D01*
%TO.C,R5*%
X97800000Y-43196359D02*
X97800000Y-43503641D01*
X97040000Y-43196359D02*
X97040000Y-43503641D01*
%TO.C,C38*%
X123729420Y-47590000D02*
X124010580Y-47590000D01*
X123729420Y-48610000D02*
X124010580Y-48610000D01*
%TO.C,R15*%
X91596359Y-35730000D02*
X91903641Y-35730000D01*
X91596359Y-34970000D02*
X91903641Y-34970000D01*
%TO.C,C32*%
X93580000Y-46657836D02*
X93580000Y-46442164D01*
X92860000Y-46657836D02*
X92860000Y-46442164D01*
%TO.C,CR6*%
X124870000Y-37750000D02*
X126170000Y-37750000D01*
X124870000Y-34950000D02*
X125870000Y-34950000D01*
%TO.C,C44*%
X82712164Y-47910000D02*
X82927836Y-47910000D01*
X82712164Y-47190000D02*
X82927836Y-47190000D01*
%TO.C,R19*%
X118625300Y-80996359D02*
X118625300Y-81303641D01*
X117865300Y-80996359D02*
X117865300Y-81303641D01*
%TO.C,C1*%
X90740000Y-55696359D02*
X90740000Y-56003641D01*
X91500000Y-55696359D02*
X91500000Y-56003641D01*
%TO.C,D4*%
X63320000Y-61650000D02*
X61470000Y-61650000D01*
X63320000Y-62850000D02*
X61470000Y-62850000D01*
X61470000Y-61650000D02*
X61470000Y-62850000D01*
%TO.C,C36*%
X102812165Y-51406400D02*
X103027837Y-51406400D01*
X102812165Y-50686400D02*
X103027837Y-50686400D01*
%TO.C,R12*%
X94396359Y-35970000D02*
X94703641Y-35970000D01*
X94396359Y-36730000D02*
X94703641Y-36730000D01*
%TO.C,C30*%
X101412164Y-46510000D02*
X101627836Y-46510000D01*
X101412164Y-45790000D02*
X101627836Y-45790000D01*
%TO.C,R10*%
X74673641Y-67530000D02*
X74366359Y-67530000D01*
X74673641Y-66770000D02*
X74366359Y-66770000D01*
%TO.C,R21*%
X139466359Y-86230000D02*
X139773641Y-86230000D01*
X139466359Y-85470000D02*
X139773641Y-85470000D01*
%TO.C,R14*%
X69820000Y-64146359D02*
X69820000Y-64453641D01*
X70580000Y-64146359D02*
X70580000Y-64453641D01*
%TO.C,C31*%
X102612165Y-52686400D02*
X102827837Y-52686400D01*
X102612165Y-53406400D02*
X102827837Y-53406400D01*
%TO.C,R7*%
X75966359Y-61370000D02*
X76273641Y-61370000D01*
X75966359Y-62130000D02*
X76273641Y-62130000D01*
%TO.C,C28*%
X92480000Y-47057836D02*
X92480000Y-46842164D01*
X91760000Y-47057836D02*
X91760000Y-46842164D01*
%TO.C,C33*%
X96260000Y-55838564D02*
X96260000Y-56054236D01*
X96980000Y-55838564D02*
X96980000Y-56054236D01*
%TO.C,U6*%
X88110001Y-76860000D02*
X88110001Y-75600000D01*
X88110001Y-70040000D02*
X88110001Y-71300000D01*
X91870001Y-70040000D02*
X88110001Y-70040000D01*
X94120001Y-76860000D02*
X88110001Y-76860000D01*
%TO.C,C16*%
X68212164Y-60435000D02*
X68427836Y-60435000D01*
X68212164Y-59715000D02*
X68427836Y-59715000D01*
%TO.C,FB1*%
X63592936Y-45360000D02*
X65047064Y-45360000D01*
X63592936Y-43540000D02*
X65047064Y-43540000D01*
%TO.C,C17*%
X123729420Y-83190000D02*
X124010580Y-83190000D01*
X123729420Y-84210000D02*
X124010580Y-84210000D01*
%TO.C,C7*%
X63379420Y-46240000D02*
X63660580Y-46240000D01*
X63379420Y-47260000D02*
X63660580Y-47260000D01*
%TO.C,C40*%
X101660001Y-54738564D02*
X101660001Y-54954236D01*
X102380001Y-54738564D02*
X102380001Y-54954236D01*
%TO.C,R1*%
X100350000Y-41336939D02*
X100350000Y-41644221D01*
X101110000Y-41336939D02*
X101110000Y-41644221D01*
%TO.C,D5*%
X138105000Y-85115000D02*
X135820000Y-85115000D01*
X138105000Y-86585000D02*
X138105000Y-85115000D01*
X135820000Y-86585000D02*
X138105000Y-86585000D01*
%TO.C,R3*%
X80366359Y-57670000D02*
X80673641Y-57670000D01*
X80366359Y-58430000D02*
X80673641Y-58430000D01*
%TO.C,C20*%
X71180000Y-83459420D02*
X71180000Y-83740580D01*
X70160000Y-83459420D02*
X70160000Y-83740580D01*
%TO.C,C6*%
X77277836Y-58840000D02*
X77062164Y-58840000D01*
X77277836Y-59560000D02*
X77062164Y-59560000D01*
%TO.C,C22*%
X119235300Y-84609420D02*
X119235300Y-84890580D01*
X120255300Y-84609420D02*
X120255300Y-84890580D01*
%TO.C,C29*%
X93180000Y-54742164D02*
X93180000Y-54957836D01*
X92460000Y-54742164D02*
X92460000Y-54957836D01*
%TO.C,C10*%
X123012164Y-40960000D02*
X123227836Y-40960000D01*
X123012164Y-40240000D02*
X123227836Y-40240000D01*
%TO.C,R2*%
X100473641Y-43430000D02*
X100166359Y-43430000D01*
X100473641Y-42670000D02*
X100166359Y-42670000D01*
%TO.C,R6*%
X81790000Y-58303641D02*
X81790000Y-57996359D01*
X82550000Y-58303641D02*
X82550000Y-57996359D01*
%TO.C,J2*%
X142380000Y-82550000D02*
X142380000Y-68630000D01*
X137370000Y-82550000D02*
X130920000Y-82550000D01*
X142380000Y-68630000D02*
X139270000Y-68630000D01*
X137370000Y-68630000D02*
X130920000Y-68630000D01*
X128010000Y-68630000D02*
X128720000Y-68630000D01*
X142380000Y-82550000D02*
X139270000Y-82550000D01*
X128010000Y-82550000D02*
X128720000Y-82550000D01*
X128010000Y-82550000D02*
X128010000Y-68630000D01*
%TO.C,C42*%
X79580000Y-43557836D02*
X79580000Y-43342164D01*
X78860000Y-43557836D02*
X78860000Y-43342164D01*
%TO.C,U2*%
X78394400Y-62159741D02*
X78394400Y-62575600D01*
X81645600Y-59740259D02*
X81645600Y-59324400D01*
X81645600Y-59324400D02*
X81229741Y-59324400D01*
X78810259Y-59324400D02*
X78394400Y-59324400D01*
X81645600Y-62575600D02*
X81645600Y-62159741D01*
X78394400Y-62575600D02*
X78810259Y-62575600D01*
X81229741Y-62575600D02*
X81645600Y-62575600D01*
X78394400Y-59324400D02*
X78394400Y-59740259D01*
G36*
X82331400Y-61390500D02*
G01*
X82077400Y-61390500D01*
X82077400Y-61009499D01*
X82331400Y-61009499D01*
X82331400Y-61390500D01*
G37*
D16*
X82331400Y-61390500D02*
X82077400Y-61390500D01*
X82077400Y-61009499D01*
X82331400Y-61009499D01*
X82331400Y-61390500D01*
D13*
%TO.C,C18*%
X132480000Y-86071937D02*
X132480000Y-95727500D01*
X121760000Y-95727500D02*
X125610000Y-95727500D01*
X130505000Y-84142500D02*
X129255000Y-84142500D01*
X131415563Y-85007500D02*
X128630000Y-85007500D01*
X121760000Y-86071937D02*
X121760000Y-95727500D01*
X122824437Y-85007500D02*
X125610000Y-85007500D01*
X132480000Y-95727500D02*
X128630000Y-95727500D01*
X131415563Y-85007500D02*
X132480000Y-86071937D01*
X129880000Y-83517500D02*
X129880000Y-84767500D01*
X122824437Y-85007500D02*
X121760000Y-86071937D01*
%TO.C,R4*%
X96400000Y-43196359D02*
X96400000Y-43503641D01*
X95640000Y-43196359D02*
X95640000Y-43503641D01*
%TO.C,C43*%
X75527836Y-49910000D02*
X75312164Y-49910000D01*
X75527836Y-49190000D02*
X75312164Y-49190000D01*
%TO.C,C27*%
X116955300Y-85909420D02*
X116955300Y-86190580D01*
X115935300Y-85909420D02*
X115935300Y-86190580D01*
%TO.C,C34*%
X99360000Y-55838564D02*
X99360000Y-56054236D01*
X100080000Y-55838564D02*
X100080000Y-56054236D01*
%TO.C,R17*%
X83140000Y-53203641D02*
X83140000Y-52896359D01*
X83900000Y-53203641D02*
X83900000Y-52896359D01*
%TO.C,J3*%
X128010000Y-46990000D02*
X128010000Y-33070000D01*
X128010000Y-33070000D02*
X128720000Y-33070000D01*
X142380000Y-46990000D02*
X142380000Y-33070000D01*
X128010000Y-46990000D02*
X128720000Y-46990000D01*
X137370000Y-46990000D02*
X130920000Y-46990000D01*
X137370000Y-33070000D02*
X130920000Y-33070000D01*
X142380000Y-33070000D02*
X139270000Y-33070000D01*
X142380000Y-46990000D02*
X139270000Y-46990000D01*
%TO.C,R23*%
X139453859Y-49870000D02*
X139761141Y-49870000D01*
X139453859Y-50630000D02*
X139761141Y-50630000D01*
D17*
%TO.C,U3*%
X81220000Y-54100000D02*
X80630000Y-54100000D01*
X77620000Y-54100000D02*
X78210000Y-54100000D01*
X77620000Y-45000000D02*
X78210000Y-45000000D01*
X81220000Y-45000000D02*
X80630000Y-45000000D01*
D18*
X82220000Y-53850000D02*
G75*
G03*
X82220000Y-53850000I-100000J0D01*
G01*
D13*
%TO.C,FB2*%
X123892936Y-80640000D02*
X125347064Y-80640000D01*
X123892936Y-82460000D02*
X125347064Y-82460000D01*
D14*
%TO.C,XTAL1*%
X89942400Y-56044960D02*
X89942400Y-55655040D01*
X87097600Y-55655040D02*
X87097600Y-56044960D01*
X86096200Y-54250000D02*
G75*
G03*
X86096200Y-54250000I-76200J0D01*
G01*
D13*
%TO.C,C2*%
X88673641Y-52970000D02*
X88366359Y-52970000D01*
X88673641Y-53730000D02*
X88366359Y-53730000D01*
%TO.C,R9*%
X75966359Y-60370000D02*
X76273641Y-60370000D01*
X75966359Y-61130000D02*
X76273641Y-61130000D01*
%TO.C,C14*%
X67762164Y-52840000D02*
X67977836Y-52840000D01*
X67762164Y-53560000D02*
X67977836Y-53560000D01*
%TO.C,Rlimit2*%
X119766359Y-47630000D02*
X120073641Y-47630000D01*
X119766359Y-46870000D02*
X120073641Y-46870000D01*
%TO.C,CR5*%
X124820000Y-77850000D02*
X126120000Y-77850000D01*
X124820000Y-75050000D02*
X125820000Y-75050000D01*
%TO.C,CR2*%
X65980000Y-53350000D02*
X64980000Y-53350000D01*
X65980000Y-50550000D02*
X64680000Y-50550000D01*
%TO.C,J6*%
X99690000Y-32495000D02*
X98360000Y-32495000D01*
X99690000Y-31165000D02*
X99690000Y-32495000D01*
X86870000Y-29835000D02*
X86870000Y-32495000D01*
X97090000Y-32495000D02*
X86870000Y-32495000D01*
X97090000Y-29835000D02*
X97090000Y-32495000D01*
X97090000Y-29835000D02*
X86870000Y-29835000D01*
%TO.C,C19*%
X68220000Y-83459420D02*
X68220000Y-83740580D01*
X67200000Y-83459420D02*
X67200000Y-83740580D01*
%TO.C,FB4*%
X68472936Y-81710000D02*
X69927064Y-81710000D01*
X68472936Y-79890000D02*
X69927064Y-79890000D01*
%TO.C,CR7*%
X124870000Y-42250000D02*
X126170000Y-42250000D01*
X124870000Y-39450000D02*
X125870000Y-39450000D01*
%TO.C,C21*%
X116930000Y-50409420D02*
X116930000Y-50690580D01*
X115910000Y-50409420D02*
X115910000Y-50690580D01*
%TO.C,C37*%
X99660000Y-45657836D02*
X99660000Y-45442164D01*
X100380000Y-45657836D02*
X100380000Y-45442164D01*
%TO.C,J1*%
X61790000Y-58600000D02*
X61790000Y-60100000D01*
X61790000Y-50600000D02*
X61790000Y-52100000D01*
X61790000Y-50600000D02*
X54530000Y-50600000D01*
X61790000Y-60100000D02*
X54530000Y-60100000D01*
%TO.C,FB3*%
X123892936Y-45040000D02*
X125347064Y-45040000D01*
X123892936Y-46860000D02*
X125347064Y-46860000D01*
%TO.C,C12*%
X52260000Y-62242164D02*
X52260000Y-62457836D01*
X52980000Y-62242164D02*
X52980000Y-62457836D01*
%TO.C,C11*%
X79770000Y-33651266D02*
X79770000Y-33932426D01*
X78750000Y-33651266D02*
X78750000Y-33932426D01*
%TO.C,J5*%
X89270000Y-95005000D02*
X96950000Y-95005000D01*
X89270000Y-95005000D02*
X89270000Y-92345000D01*
X86670000Y-92345000D02*
X88000000Y-92345000D01*
X86670000Y-93675000D02*
X86670000Y-92345000D01*
X89270000Y-92345000D02*
X96950000Y-92345000D01*
X96950000Y-95005000D02*
X96950000Y-92345000D01*
%TO.C,D1*%
X62815000Y-73535000D02*
X65100000Y-73535000D01*
X65100000Y-72065000D02*
X62815000Y-72065000D01*
X62815000Y-72065000D02*
X62815000Y-73535000D01*
%TO.C,R22*%
X118600000Y-45496359D02*
X118600000Y-45803641D01*
X117840000Y-45496359D02*
X117840000Y-45803641D01*
%TO.C,R11*%
X72953641Y-63420000D02*
X72646359Y-63420000D01*
X72953641Y-64180000D02*
X72646359Y-64180000D01*
%TO.C,C25*%
X95010001Y-75090580D02*
X95010001Y-74809420D01*
X96030001Y-75090580D02*
X96030001Y-74809420D01*
%TO.C,CR3*%
X65980000Y-60217500D02*
X64980000Y-60217500D01*
X65980000Y-57417500D02*
X64680000Y-57417500D01*
%TO.C,C15*%
X68212164Y-59435000D02*
X68427836Y-59435000D01*
X68212164Y-58715000D02*
X68427836Y-58715000D01*
%TO.C,R13*%
X71200000Y-67496359D02*
X71200000Y-67803641D01*
X70440000Y-67496359D02*
X70440000Y-67803641D01*
%TO.C,C9*%
X123012164Y-39960000D02*
X123227836Y-39960000D01*
X123012164Y-39240000D02*
X123227836Y-39240000D01*
%TO.C,C26*%
X92560581Y-69460000D02*
X92279421Y-69460000D01*
X92560581Y-68440000D02*
X92279421Y-68440000D01*
%TO.C,U5*%
X106620001Y-76860000D02*
X100610001Y-76860000D01*
X104370001Y-70040000D02*
X100610001Y-70040000D01*
X100610001Y-70040000D02*
X100610001Y-71300000D01*
X100610001Y-76860000D02*
X100610001Y-75600000D01*
%TO.C,D6*%
X137805000Y-49515000D02*
X135520000Y-49515000D01*
X137805000Y-50985000D02*
X137805000Y-49515000D01*
X135520000Y-50985000D02*
X137805000Y-50985000D01*
%TO.C,C5*%
X122962164Y-75840000D02*
X123177836Y-75840000D01*
X122962164Y-76560000D02*
X123177836Y-76560000D01*
%TO.C,C3*%
X102010000Y-41609420D02*
X102010000Y-41890580D01*
X103030000Y-41609420D02*
X103030000Y-41890580D01*
D17*
%TO.C,J4*%
X59450000Y-83900000D02*
X51000000Y-83900000D01*
X51000000Y-83900000D02*
X51000000Y-74900000D01*
X64500000Y-81750000D02*
X64500000Y-83900000D01*
X64500000Y-74900000D02*
X64500000Y-77050000D01*
X51000000Y-74900000D02*
X64500000Y-74900000D01*
X64500000Y-83900000D02*
X64150000Y-83900000D01*
D18*
X66400000Y-79400000D02*
G75*
G03*
X66400000Y-79400000I-100000J0D01*
G01*
%TD*%
M02*
