%TF.GenerationSoftware,KiCad,Pcbnew,(6.0.11)*%
%TF.CreationDate,2023-09-13T18:41:32-04:00*%
%TF.ProjectId,USB-C-Hub,5553422d-432d-4487-9562-2e6b69636164,1.0*%
%TF.SameCoordinates,Original*%
%TF.FileFunction,Soldermask,Top*%
%TF.FilePolarity,Negative*%
%FSLAX46Y46*%
G04 Gerber Fmt 4.6, Leading zero omitted, Abs format (unit mm)*
G04 Created by KiCad (PCBNEW (6.0.11)) date 2023-09-13 18:41:32*
%MOMM*%
%LPD*%
G01*
G04 APERTURE LIST*
G04 Aperture macros list*
%AMRoundRect*
0 Rectangle with rounded corners*
0 $1 Rounding radius*
0 $2 $3 $4 $5 $6 $7 $8 $9 X,Y pos of 4 corners*
0 Add a 4 corners polygon primitive as box body*
4,1,4,$2,$3,$4,$5,$6,$7,$8,$9,$2,$3,0*
0 Add four circle primitives for the rounded corners*
1,1,$1+$1,$2,$3*
1,1,$1+$1,$4,$5*
1,1,$1+$1,$6,$7*
1,1,$1+$1,$8,$9*
0 Add four rect primitives between the rounded corners*
20,1,$1+$1,$2,$3,$4,$5,0*
20,1,$1+$1,$4,$5,$6,$7,0*
20,1,$1+$1,$6,$7,$8,$9,0*
20,1,$1+$1,$8,$9,$2,$3,0*%
G04 Aperture macros list end*
%ADD10RoundRect,0.225000X-0.250000X0.225000X-0.250000X-0.225000X0.250000X-0.225000X0.250000X0.225000X0*%
%ADD11RoundRect,0.135000X-0.185000X0.135000X-0.185000X-0.135000X0.185000X-0.135000X0.185000X0.135000X0*%
%ADD12RoundRect,0.140000X-0.140000X-0.170000X0.140000X-0.170000X0.140000X0.170000X-0.140000X0.170000X0*%
%ADD13RoundRect,0.250000X-1.000000X1.950000X-1.000000X-1.950000X1.000000X-1.950000X1.000000X1.950000X0*%
%ADD14RoundRect,0.135000X-0.135000X-0.185000X0.135000X-0.185000X0.135000X0.185000X-0.135000X0.185000X0*%
%ADD15RoundRect,0.225000X0.250000X-0.225000X0.250000X0.225000X-0.250000X0.225000X-0.250000X-0.225000X0*%
%ADD16R,1.550000X1.300000*%
%ADD17R,0.203200X0.812800*%
%ADD18R,0.812800X0.203200*%
%ADD19R,4.699000X4.699000*%
%ADD20R,0.600000X0.700000*%
%ADD21R,0.550000X0.300000*%
%ADD22R,0.550000X0.400000*%
%ADD23C,0.800000*%
%ADD24C,6.000000*%
%ADD25RoundRect,0.135000X0.135000X0.185000X-0.135000X0.185000X-0.135000X-0.185000X0.135000X-0.185000X0*%
%ADD26RoundRect,0.225000X0.225000X0.250000X-0.225000X0.250000X-0.225000X-0.250000X0.225000X-0.250000X0*%
%ADD27RoundRect,0.140000X0.140000X0.170000X-0.140000X0.170000X-0.140000X-0.170000X0.140000X-0.170000X0*%
%ADD28RoundRect,0.225000X-0.225000X-0.250000X0.225000X-0.250000X0.225000X0.250000X-0.225000X0.250000X0*%
%ADD29RoundRect,0.135000X0.185000X-0.135000X0.185000X0.135000X-0.185000X0.135000X-0.185000X-0.135000X0*%
%ADD30RoundRect,0.140000X0.170000X-0.140000X0.170000X0.140000X-0.170000X0.140000X-0.170000X-0.140000X0*%
%ADD31R,0.711200X0.254000*%
%ADD32R,0.558800X1.320800*%
%ADD33RoundRect,0.140000X-0.170000X0.140000X-0.170000X-0.140000X0.170000X-0.140000X0.170000X0.140000X0*%
%ADD34R,2.000000X1.500000*%
%ADD35R,2.000000X3.800000*%
%ADD36RoundRect,0.250000X-0.312500X-0.625000X0.312500X-0.625000X0.312500X0.625000X-0.312500X0.625000X0*%
%ADD37RoundRect,0.218750X0.218750X0.256250X-0.218750X0.256250X-0.218750X-0.256250X0.218750X-0.256250X0*%
%ADD38C,1.200000*%
%ADD39O,2.100000X1.200000*%
%ADD40O,2.400000X1.200000*%
%ADD41R,0.762000X0.254000*%
%ADD42R,0.254000X0.762000*%
%ADD43R,1.498600X1.498600*%
%ADD44RoundRect,0.018900X0.411100X0.116100X-0.411100X0.116100X-0.411100X-0.116100X0.411100X-0.116100X0*%
%ADD45RoundRect,0.018900X-0.116100X0.411100X-0.116100X-0.411100X0.116100X-0.411100X0.116100X0.411100X0*%
%ADD46R,2.050000X7.550000*%
%ADD47C,0.560000*%
%ADD48R,1.397000X1.244600*%
%ADD49R,1.700000X1.700000*%
%ADD50O,1.700000X1.700000*%
%ADD51C,0.650000*%
%ADD52O,0.650000X0.950000*%
%ADD53R,0.700000X0.300000*%
%ADD54O,1.400000X0.800000*%
%ADD55RoundRect,0.218750X-0.218750X-0.256250X0.218750X-0.256250X0.218750X0.256250X-0.218750X0.256250X0*%
%ADD56O,2.000000X4.000000*%
%ADD57O,4.000000X2.000000*%
G04 APERTURE END LIST*
D10*
%TO.C,C8*%
X67720000Y-44075000D03*
X67720000Y-45625000D03*
%TD*%
%TO.C,C45*%
X119720000Y-48575000D03*
X119720000Y-50125000D03*
%TD*%
D11*
%TO.C,R8*%
X79260000Y-30281846D03*
X79260000Y-31301846D03*
%TD*%
D12*
%TO.C,C35*%
X102240001Y-48246400D03*
X103200001Y-48246400D03*
%TD*%
D13*
%TO.C,C39*%
X127120000Y-50650000D03*
X127120000Y-59050000D03*
%TD*%
D14*
%TO.C,Rlimit1*%
X119435300Y-82650000D03*
X120455300Y-82650000D03*
%TD*%
D15*
%TO.C,C23*%
X108020001Y-75725000D03*
X108020001Y-74175000D03*
%TD*%
D16*
%TO.C,SW1*%
X76600000Y-30600000D03*
X68640000Y-30600000D03*
X68640000Y-35100000D03*
X76600000Y-35100000D03*
%TD*%
D17*
%TO.C,U1*%
X95020000Y-54253600D03*
X95419999Y-54253600D03*
X95820001Y-54253600D03*
X96220000Y-54253600D03*
X96619999Y-54253600D03*
X97020001Y-54253600D03*
X97420000Y-54253600D03*
X97820000Y-54253600D03*
X98219999Y-54253600D03*
X98620001Y-54253600D03*
X99020000Y-54253600D03*
X99419999Y-54253600D03*
X99820001Y-54253600D03*
X100220000Y-54253600D03*
D18*
X101023600Y-53450000D03*
X101023600Y-53050001D03*
X101023600Y-52649999D03*
X101023600Y-52250000D03*
X101023600Y-51850001D03*
X101023600Y-51449999D03*
X101023600Y-51050000D03*
X101023600Y-50650000D03*
X101023600Y-50250001D03*
X101023600Y-49849999D03*
X101023600Y-49450000D03*
X101023600Y-49050001D03*
X101023600Y-48649999D03*
X101023600Y-48250000D03*
D17*
X100220000Y-47446400D03*
X99820001Y-47446400D03*
X99419999Y-47446400D03*
X99020000Y-47446400D03*
X98620001Y-47446400D03*
X98219999Y-47446400D03*
X97820000Y-47446400D03*
X97420000Y-47446400D03*
X97020001Y-47446400D03*
X96619999Y-47446400D03*
X96220000Y-47446400D03*
X95820001Y-47446400D03*
X95419999Y-47446400D03*
X95020000Y-47446400D03*
D18*
X94216400Y-48250000D03*
X94216400Y-48649999D03*
X94216400Y-49050001D03*
X94216400Y-49450000D03*
X94216400Y-49849999D03*
X94216400Y-50250001D03*
X94216400Y-50650000D03*
X94216400Y-51050000D03*
X94216400Y-51449999D03*
X94216400Y-51850001D03*
X94216400Y-52250000D03*
X94216400Y-52649999D03*
X94216400Y-53050001D03*
X94216400Y-53450000D03*
D19*
X97620000Y-50850000D03*
%TD*%
D20*
%TO.C,D3*%
X65020000Y-62250000D03*
X66420000Y-62250000D03*
%TD*%
D21*
%TO.C,CR1*%
X65095000Y-54350000D03*
X65095000Y-54850000D03*
D22*
X65095000Y-55350000D03*
D21*
X65095000Y-55850000D03*
X65095000Y-56350000D03*
X65865000Y-56350000D03*
X65865000Y-55850000D03*
D22*
X65865000Y-55350000D03*
D21*
X65865000Y-54850000D03*
X65865000Y-54350000D03*
%TD*%
D11*
%TO.C,R16*%
X93020000Y-56740000D03*
X93020000Y-57760000D03*
%TD*%
D23*
%TO.C,H5*%
X136809010Y-61590990D03*
X136809010Y-58409010D03*
X140650000Y-60000000D03*
X139990990Y-58409010D03*
X139990990Y-61590990D03*
D24*
X138400000Y-60000000D03*
D23*
X138400000Y-57750000D03*
X138400000Y-62250000D03*
X136150000Y-60000000D03*
%TD*%
D20*
%TO.C,D2*%
X62620000Y-48650000D03*
X64020000Y-48650000D03*
%TD*%
D11*
%TO.C,R18*%
X55120000Y-61840000D03*
X55120000Y-62860000D03*
%TD*%
D21*
%TO.C,CR4*%
X125705000Y-72950000D03*
X125705000Y-72450000D03*
D22*
X125705000Y-71950000D03*
D21*
X125705000Y-71450000D03*
X125705000Y-70950000D03*
X124935000Y-70950000D03*
X124935000Y-71450000D03*
D22*
X124935000Y-71950000D03*
D21*
X124935000Y-72450000D03*
X124935000Y-72950000D03*
%TD*%
D12*
%TO.C,C13*%
X67390000Y-52200000D03*
X68350000Y-52200000D03*
%TD*%
D25*
%TO.C,R20*%
X61810000Y-72800000D03*
X60790000Y-72800000D03*
%TD*%
D26*
%TO.C,C24*%
X105695001Y-68950000D03*
X104145001Y-68950000D03*
%TD*%
D27*
%TO.C,C41*%
X92400000Y-50850000D03*
X91440000Y-50850000D03*
%TD*%
D12*
%TO.C,C4*%
X122590000Y-75200000D03*
X123550000Y-75200000D03*
%TD*%
D11*
%TO.C,R5*%
X97420000Y-42840000D03*
X97420000Y-43860000D03*
%TD*%
D28*
%TO.C,C38*%
X123095000Y-48100000D03*
X124645000Y-48100000D03*
%TD*%
D29*
%TO.C,R15*%
X93020000Y-42760000D03*
X93020000Y-41740000D03*
%TD*%
D23*
%TO.C,H2*%
X107230000Y-31300000D03*
X109480000Y-33550000D03*
X111730000Y-31300000D03*
X107889010Y-29709010D03*
X107889010Y-32890990D03*
X111070990Y-29709010D03*
X109480000Y-29050000D03*
D24*
X109480000Y-31300000D03*
D23*
X111070990Y-32890990D03*
%TD*%
D30*
%TO.C,C32*%
X93220000Y-47030000D03*
X93220000Y-46070000D03*
%TD*%
D31*
%TO.C,U7*%
X118194700Y-48349999D03*
X118194700Y-47850000D03*
X118194700Y-47350001D03*
X116645300Y-47350001D03*
X116645300Y-47850000D03*
X116645300Y-48349999D03*
D32*
X117420000Y-47850000D03*
%TD*%
D23*
%TO.C,H3*%
X54129010Y-90859010D03*
X57970000Y-92450000D03*
X57310990Y-90859010D03*
X54129010Y-94040990D03*
D24*
X55720000Y-92450000D03*
D23*
X53470000Y-92450000D03*
X55720000Y-90200000D03*
X55720000Y-94700000D03*
X57310990Y-94040990D03*
%TD*%
D21*
%TO.C,CR6*%
X125755000Y-37350000D03*
X125755000Y-36850000D03*
D22*
X125755000Y-36350000D03*
D21*
X125755000Y-35850000D03*
X125755000Y-35350000D03*
X124985000Y-35350000D03*
X124985000Y-35850000D03*
D22*
X124985000Y-36350000D03*
D21*
X124985000Y-36850000D03*
X124985000Y-37350000D03*
%TD*%
D12*
%TO.C,C44*%
X82340000Y-47550000D03*
X83300000Y-47550000D03*
%TD*%
D11*
%TO.C,R19*%
X118245300Y-80640000D03*
X118245300Y-81660000D03*
%TD*%
%TO.C,C1*%
X91120000Y-55340000D03*
X91120000Y-56360000D03*
%TD*%
D20*
%TO.C,D4*%
X61920000Y-62250000D03*
X63320000Y-62250000D03*
%TD*%
D12*
%TO.C,C36*%
X102440001Y-51046400D03*
X103400001Y-51046400D03*
%TD*%
D29*
%TO.C,R12*%
X94520000Y-42760000D03*
X94520000Y-41740000D03*
%TD*%
D12*
%TO.C,C30*%
X101040000Y-46150000D03*
X102000000Y-46150000D03*
%TD*%
D25*
%TO.C,R10*%
X75030000Y-67150000D03*
X74010000Y-67150000D03*
%TD*%
D14*
%TO.C,R21*%
X139110000Y-85850000D03*
X140130000Y-85850000D03*
%TD*%
D11*
%TO.C,R14*%
X70200000Y-63790000D03*
X70200000Y-64810000D03*
%TD*%
D12*
%TO.C,C31*%
X102240001Y-53046400D03*
X103200001Y-53046400D03*
%TD*%
D14*
%TO.C,R7*%
X75610000Y-61750000D03*
X76630000Y-61750000D03*
%TD*%
D30*
%TO.C,C28*%
X92120000Y-47430000D03*
X92120000Y-46470000D03*
%TD*%
D33*
%TO.C,C33*%
X96620000Y-55466400D03*
X96620000Y-56426400D03*
%TD*%
D34*
%TO.C,U6*%
X93170001Y-75750000D03*
X93170001Y-73450000D03*
X93170001Y-71150000D03*
D35*
X86870001Y-73450000D03*
%TD*%
D12*
%TO.C,C16*%
X67840000Y-60075000D03*
X68800000Y-60075000D03*
%TD*%
D36*
%TO.C,FB1*%
X62857500Y-44450000D03*
X65782500Y-44450000D03*
%TD*%
D31*
%TO.C,U4*%
X118220000Y-83849999D03*
X118220000Y-83350000D03*
X118220000Y-82850001D03*
X116670600Y-82850001D03*
X116670600Y-83350000D03*
X116670600Y-83849999D03*
D32*
X117445300Y-83350000D03*
%TD*%
D28*
%TO.C,C17*%
X123095000Y-83700000D03*
X124645000Y-83700000D03*
%TD*%
%TO.C,C7*%
X62745000Y-46750000D03*
X64295000Y-46750000D03*
%TD*%
D33*
%TO.C,C40*%
X102020001Y-54366400D03*
X102020001Y-55326400D03*
%TD*%
D11*
%TO.C,R1*%
X100730000Y-40980580D03*
X100730000Y-42000580D03*
%TD*%
D37*
%TO.C,D5*%
X137407500Y-85850000D03*
X135832500Y-85850000D03*
%TD*%
D14*
%TO.C,R3*%
X80010000Y-58050000D03*
X81030000Y-58050000D03*
%TD*%
D10*
%TO.C,C20*%
X70670000Y-82825000D03*
X70670000Y-84375000D03*
%TD*%
D27*
%TO.C,C6*%
X77650000Y-59200000D03*
X76690000Y-59200000D03*
%TD*%
D10*
%TO.C,C22*%
X119745300Y-83975000D03*
X119745300Y-85525000D03*
%TD*%
D33*
%TO.C,C29*%
X92820000Y-54370000D03*
X92820000Y-55330000D03*
%TD*%
D12*
%TO.C,C10*%
X122640000Y-40600000D03*
X123600000Y-40600000D03*
%TD*%
D25*
%TO.C,R2*%
X100830000Y-43050000D03*
X99810000Y-43050000D03*
%TD*%
D29*
%TO.C,R6*%
X82170000Y-58660000D03*
X82170000Y-57640000D03*
%TD*%
D38*
%TO.C,J2*%
X130570000Y-79090000D03*
X130570000Y-76590000D03*
X130570000Y-74590000D03*
X130570000Y-72090000D03*
X129070000Y-71590000D03*
X129070000Y-73590000D03*
X129070000Y-75590000D03*
X129070000Y-77590000D03*
X129070000Y-79590000D03*
D39*
X138320000Y-69190000D03*
D40*
X129820000Y-81990000D03*
X129820000Y-69190000D03*
D39*
X138320000Y-81990000D03*
%TD*%
D30*
%TO.C,C42*%
X79220000Y-43930000D03*
X79220000Y-42970000D03*
%TD*%
D41*
%TO.C,U2*%
X78597600Y-60199999D03*
X78597600Y-60700000D03*
X78597600Y-61200000D03*
X78597600Y-61700001D03*
D42*
X79269999Y-62372400D03*
X79770000Y-62372400D03*
X80270000Y-62372400D03*
X80770001Y-62372400D03*
D41*
X81442400Y-61700001D03*
X81442400Y-61200000D03*
X81442400Y-60700000D03*
X81442400Y-60199999D03*
D42*
X80770001Y-59527600D03*
X80270000Y-59527600D03*
X79770000Y-59527600D03*
X79269999Y-59527600D03*
D43*
X80020000Y-60950000D03*
%TD*%
D13*
%TO.C,C18*%
X127120000Y-86167500D03*
X127120000Y-94567500D03*
%TD*%
D11*
%TO.C,R4*%
X96020000Y-42840000D03*
X96020000Y-43860000D03*
%TD*%
D27*
%TO.C,C43*%
X75900000Y-49550000D03*
X74940000Y-49550000D03*
%TD*%
D10*
%TO.C,C27*%
X116445300Y-85275000D03*
X116445300Y-86825000D03*
%TD*%
D33*
%TO.C,C34*%
X99720000Y-55466400D03*
X99720000Y-56426400D03*
%TD*%
D29*
%TO.C,R17*%
X83520000Y-53560000D03*
X83520000Y-52540000D03*
%TD*%
D38*
%TO.C,J3*%
X130570000Y-43530000D03*
X130570000Y-41030000D03*
X130570000Y-39030000D03*
X130570000Y-36530000D03*
X129070000Y-36030000D03*
X129070000Y-38030000D03*
X129070000Y-40030000D03*
X129070000Y-42030000D03*
X129070000Y-44030000D03*
D39*
X138320000Y-46430000D03*
D40*
X129820000Y-33630000D03*
X129820000Y-46430000D03*
D39*
X138320000Y-33630000D03*
%TD*%
D14*
%TO.C,R23*%
X139097500Y-50250000D03*
X140117500Y-50250000D03*
%TD*%
D44*
%TO.C,U3*%
X81105000Y-53550000D03*
X81105000Y-53050000D03*
X81105000Y-52550000D03*
X81105000Y-52050000D03*
X81105000Y-51550000D03*
X81105000Y-51050000D03*
X81105000Y-50550000D03*
X81105000Y-50050000D03*
X81105000Y-49550000D03*
X81105000Y-49050000D03*
X81105000Y-48550000D03*
X81105000Y-48050000D03*
X81105000Y-47550000D03*
X81105000Y-47050000D03*
X81105000Y-46550000D03*
X81105000Y-46050000D03*
X81105000Y-45550000D03*
D45*
X80170000Y-45115000D03*
X79670000Y-45115000D03*
X79170000Y-45115000D03*
X78670000Y-45115000D03*
D44*
X77735000Y-45550000D03*
X77735000Y-46050000D03*
X77735000Y-46550000D03*
X77735000Y-47050000D03*
X77735000Y-47550000D03*
X77735000Y-48050000D03*
X77735000Y-48550000D03*
X77735000Y-49050000D03*
X77735000Y-49550000D03*
X77735000Y-50050000D03*
X77735000Y-50550000D03*
X77735000Y-51050000D03*
X77735000Y-51550000D03*
X77735000Y-52050000D03*
X77735000Y-52550000D03*
X77735000Y-53050000D03*
X77735000Y-53550000D03*
D45*
X78670000Y-53985000D03*
X79170000Y-53985000D03*
X79670000Y-53985000D03*
X80170000Y-53985000D03*
D46*
X79420000Y-49550000D03*
D47*
X79920000Y-52550000D03*
X79920000Y-51050000D03*
X79920000Y-49550000D03*
X79920000Y-48050000D03*
X79920000Y-46550000D03*
X79420000Y-51800000D03*
X79420000Y-50300000D03*
X79420000Y-48800000D03*
X79420000Y-47300000D03*
X78920000Y-52550000D03*
X78920000Y-51050000D03*
X78920000Y-49550000D03*
X78920000Y-48050000D03*
X78920000Y-46550000D03*
%TD*%
D36*
%TO.C,FB2*%
X123157500Y-81550000D03*
X126082500Y-81550000D03*
%TD*%
D48*
%TO.C,XTAL1*%
X87463700Y-54700000D03*
X87463700Y-57000000D03*
X89576300Y-57000000D03*
X89576300Y-54700000D03*
%TD*%
D25*
%TO.C,C2*%
X89030000Y-53350000D03*
X88010000Y-53350000D03*
%TD*%
D14*
%TO.C,R9*%
X75610000Y-60750000D03*
X76630000Y-60750000D03*
%TD*%
D12*
%TO.C,C14*%
X67390000Y-53200000D03*
X68350000Y-53200000D03*
%TD*%
D14*
%TO.C,Rlimit2*%
X119410000Y-47250000D03*
X120430000Y-47250000D03*
%TD*%
D21*
%TO.C,CR5*%
X125705000Y-77450000D03*
X125705000Y-76950000D03*
D22*
X125705000Y-76450000D03*
D21*
X125705000Y-75950000D03*
X125705000Y-75450000D03*
X124935000Y-75450000D03*
X124935000Y-75950000D03*
D22*
X124935000Y-76450000D03*
D21*
X124935000Y-76950000D03*
X124935000Y-77450000D03*
%TD*%
%TO.C,CR2*%
X65095000Y-50950000D03*
X65095000Y-51450000D03*
D22*
X65095000Y-51950000D03*
D21*
X65095000Y-52450000D03*
X65095000Y-52950000D03*
X65865000Y-52950000D03*
X65865000Y-52450000D03*
D22*
X65865000Y-51950000D03*
D21*
X65865000Y-51450000D03*
X65865000Y-50950000D03*
%TD*%
D23*
%TO.C,H1*%
X53750000Y-31300000D03*
X57590990Y-32890990D03*
X54409010Y-32890990D03*
X56000000Y-29050000D03*
X58250000Y-31300000D03*
X56000000Y-33550000D03*
D24*
X56000000Y-31300000D03*
D23*
X57590990Y-29709010D03*
X54409010Y-29709010D03*
%TD*%
D49*
%TO.C,J6*%
X98360000Y-31165000D03*
D50*
X95820000Y-31165000D03*
X93280000Y-31165000D03*
X90740000Y-31165000D03*
X88200000Y-31165000D03*
%TD*%
D10*
%TO.C,C19*%
X67710000Y-82825000D03*
X67710000Y-84375000D03*
%TD*%
D36*
%TO.C,FB4*%
X67737500Y-80800000D03*
X70662500Y-80800000D03*
%TD*%
D21*
%TO.C,CR7*%
X125755000Y-41850000D03*
X125755000Y-41350000D03*
D22*
X125755000Y-40850000D03*
D21*
X125755000Y-40350000D03*
X125755000Y-39850000D03*
X124985000Y-39850000D03*
X124985000Y-40350000D03*
D22*
X124985000Y-40850000D03*
D21*
X124985000Y-41350000D03*
X124985000Y-41850000D03*
%TD*%
D10*
%TO.C,C21*%
X116420000Y-49775000D03*
X116420000Y-51325000D03*
%TD*%
D30*
%TO.C,C37*%
X100020000Y-46030000D03*
X100020000Y-45070000D03*
%TD*%
D51*
%TO.C,J1*%
X60780000Y-51750000D03*
D52*
X60780000Y-58950000D03*
D53*
X61440000Y-52600000D03*
X61440000Y-53100000D03*
X61440000Y-53600000D03*
X61440000Y-54100000D03*
X61440000Y-54600000D03*
X61440000Y-55100000D03*
X61440000Y-55600000D03*
X61440000Y-56100000D03*
X61440000Y-56600000D03*
X61440000Y-57100000D03*
X61440000Y-57600000D03*
X61440000Y-58100000D03*
X59740000Y-57850000D03*
X59740000Y-57350000D03*
X59740000Y-56850000D03*
X59740000Y-56350000D03*
X59740000Y-55850000D03*
X59740000Y-55350000D03*
X59740000Y-54850000D03*
X59740000Y-54350000D03*
X59740000Y-53850000D03*
X59740000Y-53350000D03*
X59740000Y-52850000D03*
X59740000Y-52350000D03*
D54*
X53580000Y-50860000D03*
X53580000Y-59840000D03*
X59530000Y-51220000D03*
X59530000Y-59480000D03*
%TD*%
D36*
%TO.C,FB3*%
X123157500Y-45950000D03*
X126082500Y-45950000D03*
%TD*%
D33*
%TO.C,C12*%
X52620000Y-61870000D03*
X52620000Y-62830000D03*
%TD*%
D10*
%TO.C,C11*%
X79260000Y-33016846D03*
X79260000Y-34566846D03*
%TD*%
D49*
%TO.C,J5*%
X88000000Y-93675000D03*
D50*
X90540000Y-93675000D03*
X93080000Y-93675000D03*
X95620000Y-93675000D03*
%TD*%
D23*
%TO.C,H4*%
X109300000Y-90150000D03*
X107709010Y-93990990D03*
X107050000Y-92400000D03*
X110890990Y-93990990D03*
X109300000Y-94650000D03*
X110890990Y-90809010D03*
X111550000Y-92400000D03*
X107709010Y-90809010D03*
D24*
X109300000Y-92400000D03*
%TD*%
D55*
%TO.C,D1*%
X63512500Y-72800000D03*
X65087500Y-72800000D03*
%TD*%
D11*
%TO.C,R22*%
X118220000Y-45140000D03*
X118220000Y-46160000D03*
%TD*%
D25*
%TO.C,R11*%
X73310000Y-63800000D03*
X72290000Y-63800000D03*
%TD*%
D15*
%TO.C,C25*%
X95520001Y-75725000D03*
X95520001Y-74175000D03*
%TD*%
D21*
%TO.C,CR3*%
X65095000Y-57817500D03*
X65095000Y-58317500D03*
D22*
X65095000Y-58817500D03*
D21*
X65095000Y-59317500D03*
X65095000Y-59817500D03*
X65865000Y-59817500D03*
X65865000Y-59317500D03*
D22*
X65865000Y-58817500D03*
D21*
X65865000Y-58317500D03*
X65865000Y-57817500D03*
%TD*%
D12*
%TO.C,C15*%
X67840000Y-59075000D03*
X68800000Y-59075000D03*
%TD*%
D11*
%TO.C,R13*%
X70820000Y-67140000D03*
X70820000Y-68160000D03*
%TD*%
D12*
%TO.C,C9*%
X122640000Y-39600000D03*
X123600000Y-39600000D03*
%TD*%
D26*
%TO.C,C26*%
X93195001Y-68950000D03*
X91645001Y-68950000D03*
%TD*%
D34*
%TO.C,U5*%
X105670001Y-75750000D03*
X105670001Y-73450000D03*
X105670001Y-71150000D03*
D35*
X99370001Y-73450000D03*
%TD*%
D37*
%TO.C,D6*%
X137107500Y-50250000D03*
X135532500Y-50250000D03*
%TD*%
D12*
%TO.C,C5*%
X122590000Y-76200000D03*
X123550000Y-76200000D03*
%TD*%
D10*
%TO.C,C3*%
X102520000Y-40975000D03*
X102520000Y-42525000D03*
%TD*%
D56*
%TO.C,J4*%
X64600000Y-79400000D03*
D57*
X61800000Y-84000000D03*
D56*
X58500000Y-79400000D03*
%TD*%
M02*
