%TF.GenerationSoftware,KiCad,Pcbnew,(6.0.11)*%
%TF.CreationDate,2023-09-13T18:41:32-04:00*%
%TF.ProjectId,USB-C-Hub,5553422d-432d-4487-9562-2e6b69636164,1.0*%
%TF.SameCoordinates,Original*%
%TF.FileFunction,Legend,Top*%
%TF.FilePolarity,Positive*%
%FSLAX46Y46*%
G04 Gerber Fmt 4.6, Leading zero omitted, Abs format (unit mm)*
G04 Created by KiCad (PCBNEW (6.0.11)) date 2023-09-13 18:41:32*
%MOMM*%
%LPD*%
G01*
G04 APERTURE LIST*
%ADD10C,0.300000*%
%ADD11C,0.150000*%
%ADD12C,0.120000*%
%ADD13C,0.152400*%
%ADD14C,0.100000*%
%ADD15C,0.127000*%
%ADD16C,0.200000*%
G04 APERTURE END LIST*
D10*
X59892857Y-95692857D02*
X60392857Y-95692857D01*
X60607142Y-96478571D02*
X59892857Y-96478571D01*
X59892857Y-94978571D01*
X60607142Y-94978571D01*
X61107142Y-96478571D02*
X61892857Y-95478571D01*
X61107142Y-95478571D02*
X61892857Y-96478571D01*
X63107142Y-96407142D02*
X62964285Y-96478571D01*
X62678571Y-96478571D01*
X62535714Y-96407142D01*
X62464285Y-96335714D01*
X62392857Y-96192857D01*
X62392857Y-95764285D01*
X62464285Y-95621428D01*
X62535714Y-95550000D01*
X62678571Y-95478571D01*
X62964285Y-95478571D01*
X63107142Y-95550000D01*
X63964285Y-96478571D02*
X63821428Y-96407142D01*
X63750000Y-96264285D01*
X63750000Y-94978571D01*
X65178571Y-95478571D02*
X65178571Y-96478571D01*
X64535714Y-95478571D02*
X64535714Y-96264285D01*
X64607142Y-96407142D01*
X64750000Y-96478571D01*
X64964285Y-96478571D01*
X65107142Y-96407142D01*
X65178571Y-96335714D01*
X65821428Y-96407142D02*
X65964285Y-96478571D01*
X66250000Y-96478571D01*
X66392857Y-96407142D01*
X66464285Y-96264285D01*
X66464285Y-96192857D01*
X66392857Y-96050000D01*
X66250000Y-95978571D01*
X66035714Y-95978571D01*
X65892857Y-95907142D01*
X65821428Y-95764285D01*
X65821428Y-95692857D01*
X65892857Y-95550000D01*
X66035714Y-95478571D01*
X66250000Y-95478571D01*
X66392857Y-95550000D01*
X67107142Y-96478571D02*
X67107142Y-95478571D01*
X67107142Y-94978571D02*
X67035714Y-95050000D01*
X67107142Y-95121428D01*
X67178571Y-95050000D01*
X67107142Y-94978571D01*
X67107142Y-95121428D01*
X67678571Y-95478571D02*
X68035714Y-96478571D01*
X68392857Y-95478571D01*
X69535714Y-96407142D02*
X69392857Y-96478571D01*
X69107142Y-96478571D01*
X68964285Y-96407142D01*
X68892857Y-96264285D01*
X68892857Y-95692857D01*
X68964285Y-95550000D01*
X69107142Y-95478571D01*
X69392857Y-95478571D01*
X69535714Y-95550000D01*
X69607142Y-95692857D01*
X69607142Y-95835714D01*
X68892857Y-95978571D01*
X71392857Y-95692857D02*
X71892857Y-95692857D01*
X72107142Y-96478571D02*
X71392857Y-96478571D01*
X71392857Y-94978571D01*
X72107142Y-94978571D01*
X72964285Y-96478571D02*
X72821428Y-96407142D01*
X72750000Y-96264285D01*
X72750000Y-94978571D01*
X74107142Y-96407142D02*
X73964285Y-96478571D01*
X73678571Y-96478571D01*
X73535714Y-96407142D01*
X73464285Y-96264285D01*
X73464285Y-95692857D01*
X73535714Y-95550000D01*
X73678571Y-95478571D01*
X73964285Y-95478571D01*
X74107142Y-95550000D01*
X74178571Y-95692857D01*
X74178571Y-95835714D01*
X73464285Y-95978571D01*
X75464285Y-96407142D02*
X75321428Y-96478571D01*
X75035714Y-96478571D01*
X74892857Y-96407142D01*
X74821428Y-96335714D01*
X74750000Y-96192857D01*
X74750000Y-95764285D01*
X74821428Y-95621428D01*
X74892857Y-95550000D01*
X75035714Y-95478571D01*
X75321428Y-95478571D01*
X75464285Y-95550000D01*
X75892857Y-95478571D02*
X76464285Y-95478571D01*
X76107142Y-94978571D02*
X76107142Y-96264285D01*
X76178571Y-96407142D01*
X76321428Y-96478571D01*
X76464285Y-96478571D01*
X76964285Y-96478571D02*
X76964285Y-95478571D01*
X76964285Y-95764285D02*
X77035714Y-95621428D01*
X77107142Y-95550000D01*
X77250000Y-95478571D01*
X77392857Y-95478571D01*
X78107142Y-96478571D02*
X77964285Y-96407142D01*
X77892857Y-96335714D01*
X77821428Y-96192857D01*
X77821428Y-95764285D01*
X77892857Y-95621428D01*
X77964285Y-95550000D01*
X78107142Y-95478571D01*
X78321428Y-95478571D01*
X78464285Y-95550000D01*
X78535714Y-95621428D01*
X78607142Y-95764285D01*
X78607142Y-96192857D01*
X78535714Y-96335714D01*
X78464285Y-96407142D01*
X78321428Y-96478571D01*
X78107142Y-96478571D01*
X79250000Y-95478571D02*
X79250000Y-96478571D01*
X79250000Y-95621428D02*
X79321428Y-95550000D01*
X79464285Y-95478571D01*
X79678571Y-95478571D01*
X79821428Y-95550000D01*
X79892857Y-95692857D01*
X79892857Y-96478571D01*
X80607142Y-96478571D02*
X80607142Y-95478571D01*
X80607142Y-94978571D02*
X80535714Y-95050000D01*
X80607142Y-95121428D01*
X80678571Y-95050000D01*
X80607142Y-94978571D01*
X80607142Y-95121428D01*
X81964285Y-96407142D02*
X81821428Y-96478571D01*
X81535714Y-96478571D01*
X81392857Y-96407142D01*
X81321428Y-96335714D01*
X81250000Y-96192857D01*
X81250000Y-95764285D01*
X81321428Y-95621428D01*
X81392857Y-95550000D01*
X81535714Y-95478571D01*
X81821428Y-95478571D01*
X81964285Y-95550000D01*
X82535714Y-96407142D02*
X82678571Y-96478571D01*
X82964285Y-96478571D01*
X83107142Y-96407142D01*
X83178571Y-96264285D01*
X83178571Y-96192857D01*
X83107142Y-96050000D01*
X82964285Y-95978571D01*
X82750000Y-95978571D01*
X82607142Y-95907142D01*
X82535714Y-95764285D01*
X82535714Y-95692857D01*
X82607142Y-95550000D01*
X82750000Y-95478571D01*
X82964285Y-95478571D01*
X83107142Y-95550000D01*
X116742857Y-28978571D02*
X116742857Y-27478571D01*
X118100000Y-28978571D02*
X118100000Y-28192857D01*
X118028571Y-28050000D01*
X117885714Y-27978571D01*
X117600000Y-27978571D01*
X117457142Y-28050000D01*
X118100000Y-28907142D02*
X117957142Y-28978571D01*
X117600000Y-28978571D01*
X117457142Y-28907142D01*
X117385714Y-28764285D01*
X117385714Y-28621428D01*
X117457142Y-28478571D01*
X117600000Y-28407142D01*
X117957142Y-28407142D01*
X118100000Y-28335714D01*
X118814285Y-27978571D02*
X118814285Y-28978571D01*
X118814285Y-28121428D02*
X118885714Y-28050000D01*
X119028571Y-27978571D01*
X119242857Y-27978571D01*
X119385714Y-28050000D01*
X119457142Y-28192857D01*
X119457142Y-28978571D01*
X120242857Y-27478571D02*
X120100000Y-27764285D01*
X120814285Y-28907142D02*
X120957142Y-28978571D01*
X121242857Y-28978571D01*
X121385714Y-28907142D01*
X121457142Y-28764285D01*
X121457142Y-28692857D01*
X121385714Y-28550000D01*
X121242857Y-28478571D01*
X121028571Y-28478571D01*
X120885714Y-28407142D01*
X120814285Y-28264285D01*
X120814285Y-28192857D01*
X120885714Y-28050000D01*
X121028571Y-27978571D01*
X121242857Y-27978571D01*
X121385714Y-28050000D01*
X123242857Y-27478571D02*
X123242857Y-28692857D01*
X123314285Y-28835714D01*
X123385714Y-28907142D01*
X123528571Y-28978571D01*
X123814285Y-28978571D01*
X123957142Y-28907142D01*
X124028571Y-28835714D01*
X124100000Y-28692857D01*
X124100000Y-27478571D01*
X124742857Y-28907142D02*
X124957142Y-28978571D01*
X125314285Y-28978571D01*
X125457142Y-28907142D01*
X125528571Y-28835714D01*
X125600000Y-28692857D01*
X125600000Y-28550000D01*
X125528571Y-28407142D01*
X125457142Y-28335714D01*
X125314285Y-28264285D01*
X125028571Y-28192857D01*
X124885714Y-28121428D01*
X124814285Y-28050000D01*
X124742857Y-27907142D01*
X124742857Y-27764285D01*
X124814285Y-27621428D01*
X124885714Y-27550000D01*
X125028571Y-27478571D01*
X125385714Y-27478571D01*
X125600000Y-27550000D01*
X126742857Y-28192857D02*
X126957142Y-28264285D01*
X127028571Y-28335714D01*
X127100000Y-28478571D01*
X127100000Y-28692857D01*
X127028571Y-28835714D01*
X126957142Y-28907142D01*
X126814285Y-28978571D01*
X126242857Y-28978571D01*
X126242857Y-27478571D01*
X126742857Y-27478571D01*
X126885714Y-27550000D01*
X126957142Y-27621428D01*
X127028571Y-27764285D01*
X127028571Y-27907142D01*
X126957142Y-28050000D01*
X126885714Y-28121428D01*
X126742857Y-28192857D01*
X126242857Y-28192857D01*
X128885714Y-28978571D02*
X128885714Y-27478571D01*
X128885714Y-28192857D02*
X129742857Y-28192857D01*
X129742857Y-28978571D02*
X129742857Y-27478571D01*
X131100000Y-27978571D02*
X131100000Y-28978571D01*
X130457142Y-27978571D02*
X130457142Y-28764285D01*
X130528571Y-28907142D01*
X130671428Y-28978571D01*
X130885714Y-28978571D01*
X131028571Y-28907142D01*
X131100000Y-28835714D01*
X131814285Y-28978571D02*
X131814285Y-27478571D01*
X131814285Y-28050000D02*
X131957142Y-27978571D01*
X132242857Y-27978571D01*
X132385714Y-28050000D01*
X132457142Y-28121428D01*
X132528571Y-28264285D01*
X132528571Y-28692857D01*
X132457142Y-28835714D01*
X132385714Y-28907142D01*
X132242857Y-28978571D01*
X131957142Y-28978571D01*
X131814285Y-28907142D01*
D11*
%TO.C,U1*%
X94672381Y-55146400D02*
X94910477Y-55146400D01*
X94815239Y-55384495D02*
X94910477Y-55146400D01*
X94815239Y-54908304D01*
X95100953Y-55289257D02*
X94910477Y-55146400D01*
X95100953Y-55003542D01*
%TO.C,U7*%
X118700000Y-49447619D02*
X118700000Y-49209523D01*
X118938095Y-49304761D02*
X118700000Y-49209523D01*
X118461904Y-49304761D01*
X118842857Y-49019047D02*
X118700000Y-49209523D01*
X118557142Y-49019047D01*
%TO.C,U4*%
X118800000Y-84947619D02*
X118800000Y-84709523D01*
X119038095Y-84804761D02*
X118800000Y-84709523D01*
X118561904Y-84804761D01*
X118942857Y-84519047D02*
X118800000Y-84709523D01*
X118657142Y-84519047D01*
%TO.C,U2*%
X75353333Y-63802380D02*
X75353333Y-64611904D01*
X75400952Y-64707142D01*
X75448571Y-64754761D01*
X75543809Y-64802380D01*
X75734285Y-64802380D01*
X75829523Y-64754761D01*
X75877142Y-64707142D01*
X75924761Y-64611904D01*
X75924761Y-63802380D01*
X76258095Y-63802380D02*
X76829523Y-63802380D01*
X76543809Y-64802380D02*
X76543809Y-63802380D01*
X77734285Y-64707142D02*
X77686666Y-64754761D01*
X77543809Y-64802380D01*
X77448571Y-64802380D01*
X77305714Y-64754761D01*
X77210476Y-64659523D01*
X77162857Y-64564285D01*
X77115238Y-64373809D01*
X77115238Y-64230952D01*
X77162857Y-64040476D01*
X77210476Y-63945238D01*
X77305714Y-63850000D01*
X77448571Y-63802380D01*
X77543809Y-63802380D01*
X77686666Y-63850000D01*
X77734285Y-63897619D01*
X78115238Y-63897619D02*
X78162857Y-63850000D01*
X78258095Y-63802380D01*
X78496190Y-63802380D01*
X78591428Y-63850000D01*
X78639047Y-63897619D01*
X78686666Y-63992857D01*
X78686666Y-64088095D01*
X78639047Y-64230952D01*
X78067619Y-64802380D01*
X78686666Y-64802380D01*
X79305714Y-63802380D02*
X79400952Y-63802380D01*
X79496190Y-63850000D01*
X79543809Y-63897619D01*
X79591428Y-63992857D01*
X79639047Y-64183333D01*
X79639047Y-64421428D01*
X79591428Y-64611904D01*
X79543809Y-64707142D01*
X79496190Y-64754761D01*
X79400952Y-64802380D01*
X79305714Y-64802380D01*
X79210476Y-64754761D01*
X79162857Y-64707142D01*
X79115238Y-64611904D01*
X79067619Y-64421428D01*
X79067619Y-64183333D01*
X79115238Y-63992857D01*
X79162857Y-63897619D01*
X79210476Y-63850000D01*
X79305714Y-63802380D01*
X80258095Y-63802380D02*
X80353333Y-63802380D01*
X80448571Y-63850000D01*
X80496190Y-63897619D01*
X80543809Y-63992857D01*
X80591428Y-64183333D01*
X80591428Y-64421428D01*
X80543809Y-64611904D01*
X80496190Y-64707142D01*
X80448571Y-64754761D01*
X80353333Y-64802380D01*
X80258095Y-64802380D01*
X80162857Y-64754761D01*
X80115238Y-64707142D01*
X80067619Y-64611904D01*
X80020000Y-64421428D01*
X80020000Y-64183333D01*
X80067619Y-63992857D01*
X80115238Y-63897619D01*
X80162857Y-63850000D01*
X80258095Y-63802380D01*
X81210476Y-63802380D02*
X81305714Y-63802380D01*
X81400952Y-63850000D01*
X81448571Y-63897619D01*
X81496190Y-63992857D01*
X81543809Y-64183333D01*
X81543809Y-64421428D01*
X81496190Y-64611904D01*
X81448571Y-64707142D01*
X81400952Y-64754761D01*
X81305714Y-64802380D01*
X81210476Y-64802380D01*
X81115238Y-64754761D01*
X81067619Y-64707142D01*
X81020000Y-64611904D01*
X80972380Y-64421428D01*
X80972380Y-64183333D01*
X81020000Y-63992857D01*
X81067619Y-63897619D01*
X81115238Y-63850000D01*
X81210476Y-63802380D01*
X82686666Y-63754761D02*
X81829523Y-65040476D01*
X83020000Y-64802380D02*
X83020000Y-63802380D01*
X83353333Y-64516666D01*
X83686666Y-63802380D01*
X83686666Y-64802380D01*
X84686666Y-63850000D02*
X84591428Y-63802380D01*
X84448571Y-63802380D01*
X84305714Y-63850000D01*
X84210476Y-63945238D01*
X84162857Y-64040476D01*
X84115238Y-64230952D01*
X84115238Y-64373809D01*
X84162857Y-64564285D01*
X84210476Y-64659523D01*
X84305714Y-64754761D01*
X84448571Y-64802380D01*
X84543809Y-64802380D01*
X84686666Y-64754761D01*
X84734285Y-64707142D01*
X84734285Y-64373809D01*
X84543809Y-64373809D01*
X77581600Y-59852380D02*
X77581600Y-60090476D01*
X77343504Y-59995238D02*
X77581600Y-60090476D01*
X77819695Y-59995238D01*
X77438742Y-60280952D02*
X77581600Y-60090476D01*
X77724457Y-60280952D01*
D12*
%TO.C,C8*%
X68230000Y-44709420D02*
X68230000Y-44990580D01*
X67210000Y-44709420D02*
X67210000Y-44990580D01*
%TO.C,C45*%
X120230000Y-49209420D02*
X120230000Y-49490580D01*
X119210000Y-49209420D02*
X119210000Y-49490580D01*
%TO.C,R8*%
X78880000Y-30638205D02*
X78880000Y-30945487D01*
X79640000Y-30638205D02*
X79640000Y-30945487D01*
%TO.C,C35*%
X102612165Y-47886400D02*
X102827837Y-47886400D01*
X102612165Y-48606400D02*
X102827837Y-48606400D01*
%TO.C,C39*%
X131415563Y-49490000D02*
X132480000Y-50554437D01*
X130505000Y-48625000D02*
X129255000Y-48625000D01*
X129880000Y-48000000D02*
X129880000Y-49250000D01*
X122824437Y-49490000D02*
X121760000Y-50554437D01*
X121760000Y-60210000D02*
X125610000Y-60210000D01*
X132480000Y-50554437D02*
X132480000Y-60210000D01*
X131415563Y-49490000D02*
X128630000Y-49490000D01*
X132480000Y-60210000D02*
X128630000Y-60210000D01*
X122824437Y-49490000D02*
X125610000Y-49490000D01*
X121760000Y-50554437D02*
X121760000Y-60210000D01*
%TO.C,Rlimit1*%
X119791659Y-82270000D02*
X120098941Y-82270000D01*
X119791659Y-83030000D02*
X120098941Y-83030000D01*
%TO.C,C23*%
X108530001Y-75090580D02*
X108530001Y-74809420D01*
X107510001Y-75090580D02*
X107510001Y-74809420D01*
%TO.C,SW1*%
X75850000Y-36080000D02*
X75850000Y-36050000D01*
X69390000Y-31550000D02*
X69390000Y-34150000D01*
X75850000Y-29620000D02*
X75850000Y-29650000D01*
X69390000Y-29650000D02*
X69390000Y-29620000D01*
X75850000Y-31550000D02*
X75850000Y-34150000D01*
X69390000Y-36080000D02*
X75850000Y-36080000D01*
X69390000Y-29620000D02*
X75850000Y-29620000D01*
X69390000Y-36080000D02*
X69390000Y-36050000D01*
D13*
%TO.C,U1*%
X93987800Y-47217800D02*
X93987800Y-47815660D01*
X101252200Y-47815660D02*
X101252200Y-47217800D01*
X100654340Y-54482200D02*
X101252200Y-54482200D01*
X94585660Y-47217800D02*
X93987800Y-47217800D01*
X93987800Y-54482200D02*
X94585660Y-54482200D01*
X101252200Y-54482200D02*
X101252200Y-53884340D01*
X93987800Y-53884340D02*
X93987800Y-54482200D01*
X101252200Y-47217800D02*
X100654340Y-47217800D01*
G36*
X93556000Y-51240500D02*
G01*
X93302000Y-51240500D01*
X93302000Y-50859500D01*
X93556000Y-50859500D01*
X93556000Y-51240500D01*
G37*
G36*
X100010501Y-46786000D02*
G01*
X99629501Y-46786000D01*
X99629501Y-46532000D01*
X100010501Y-46532000D01*
X100010501Y-46786000D01*
G37*
G36*
X96010501Y-46786000D02*
G01*
X95629501Y-46786000D01*
X95629501Y-46532000D01*
X96010501Y-46532000D01*
X96010501Y-46786000D01*
G37*
G36*
X98810501Y-55168000D02*
G01*
X98429501Y-55168000D01*
X98429501Y-54914000D01*
X98810501Y-54914000D01*
X98810501Y-55168000D01*
G37*
G36*
X101938000Y-51640499D02*
G01*
X101684000Y-51640499D01*
X101684000Y-51259499D01*
X101938000Y-51259499D01*
X101938000Y-51640499D01*
G37*
D12*
%TO.C,D3*%
X66420000Y-61650000D02*
X64570000Y-61650000D01*
X64570000Y-61650000D02*
X64570000Y-62850000D01*
X66420000Y-62850000D02*
X64570000Y-62850000D01*
%TO.C,CR1*%
X65980000Y-53950000D02*
X64680000Y-53950000D01*
X65980000Y-56750000D02*
X64980000Y-56750000D01*
%TO.C,R16*%
X93400000Y-57096359D02*
X93400000Y-57403641D01*
X92640000Y-57096359D02*
X92640000Y-57403641D01*
%TO.C,D2*%
X64020000Y-48050000D02*
X62170000Y-48050000D01*
X64020000Y-49250000D02*
X62170000Y-49250000D01*
X62170000Y-48050000D02*
X62170000Y-49250000D01*
%TO.C,R18*%
X55500000Y-62196359D02*
X55500000Y-62503641D01*
X54740000Y-62196359D02*
X54740000Y-62503641D01*
%TO.C,CR4*%
X124820000Y-70550000D02*
X125820000Y-70550000D01*
X124820000Y-73350000D02*
X126120000Y-73350000D01*
%TO.C,C13*%
X67762164Y-52560000D02*
X67977836Y-52560000D01*
X67762164Y-51840000D02*
X67977836Y-51840000D01*
%TO.C,R20*%
X61453641Y-72420000D02*
X61146359Y-72420000D01*
X61453641Y-73180000D02*
X61146359Y-73180000D01*
%TO.C,C24*%
X105060581Y-68440000D02*
X104779421Y-68440000D01*
X105060581Y-69460000D02*
X104779421Y-69460000D01*
%TO.C,C41*%
X92027836Y-50490000D02*
X91812164Y-50490000D01*
X92027836Y-51210000D02*
X91812164Y-51210000D01*
%TO.C,C4*%
X122962164Y-75560000D02*
X123177836Y-75560000D01*
X122962164Y-74840000D02*
X123177836Y-74840000D01*
%TO.C,R5*%
X97800000Y-43196359D02*
X97800000Y-43503641D01*
X97040000Y-43196359D02*
X97040000Y-43503641D01*
%TO.C,C38*%
X123729420Y-47590000D02*
X124010580Y-47590000D01*
X123729420Y-48610000D02*
X124010580Y-48610000D01*
%TO.C,R15*%
X93400000Y-42403641D02*
X93400000Y-42096359D01*
X92640000Y-42403641D02*
X92640000Y-42096359D01*
%TO.C,C32*%
X93580000Y-46657836D02*
X93580000Y-46442164D01*
X92860000Y-46657836D02*
X92860000Y-46442164D01*
%TO.C,CR6*%
X124870000Y-37750000D02*
X126170000Y-37750000D01*
X124870000Y-34950000D02*
X125870000Y-34950000D01*
%TO.C,C44*%
X82712164Y-47910000D02*
X82927836Y-47910000D01*
X82712164Y-47190000D02*
X82927836Y-47190000D01*
%TO.C,R19*%
X118625300Y-80996359D02*
X118625300Y-81303641D01*
X117865300Y-80996359D02*
X117865300Y-81303641D01*
%TO.C,C1*%
X90740000Y-55696359D02*
X90740000Y-56003641D01*
X91500000Y-55696359D02*
X91500000Y-56003641D01*
%TO.C,D4*%
X63320000Y-61650000D02*
X61470000Y-61650000D01*
X63320000Y-62850000D02*
X61470000Y-62850000D01*
X61470000Y-61650000D02*
X61470000Y-62850000D01*
%TO.C,C36*%
X102812165Y-51406400D02*
X103027837Y-51406400D01*
X102812165Y-50686400D02*
X103027837Y-50686400D01*
%TO.C,R12*%
X94140000Y-42403641D02*
X94140000Y-42096359D01*
X94900000Y-42403641D02*
X94900000Y-42096359D01*
%TO.C,C30*%
X101412164Y-46510000D02*
X101627836Y-46510000D01*
X101412164Y-45790000D02*
X101627836Y-45790000D01*
%TO.C,R10*%
X74673641Y-67530000D02*
X74366359Y-67530000D01*
X74673641Y-66770000D02*
X74366359Y-66770000D01*
%TO.C,R21*%
X139466359Y-86230000D02*
X139773641Y-86230000D01*
X139466359Y-85470000D02*
X139773641Y-85470000D01*
%TO.C,R14*%
X69820000Y-64146359D02*
X69820000Y-64453641D01*
X70580000Y-64146359D02*
X70580000Y-64453641D01*
%TO.C,C31*%
X102612165Y-52686400D02*
X102827837Y-52686400D01*
X102612165Y-53406400D02*
X102827837Y-53406400D01*
%TO.C,R7*%
X75966359Y-61370000D02*
X76273641Y-61370000D01*
X75966359Y-62130000D02*
X76273641Y-62130000D01*
%TO.C,C28*%
X92480000Y-47057836D02*
X92480000Y-46842164D01*
X91760000Y-47057836D02*
X91760000Y-46842164D01*
%TO.C,C33*%
X96260000Y-55838564D02*
X96260000Y-56054236D01*
X96980000Y-55838564D02*
X96980000Y-56054236D01*
%TO.C,U6*%
X88110001Y-76860000D02*
X88110001Y-75600000D01*
X88110001Y-70040000D02*
X88110001Y-71300000D01*
X91870001Y-70040000D02*
X88110001Y-70040000D01*
X94120001Y-76860000D02*
X88110001Y-76860000D01*
%TO.C,C16*%
X68212164Y-60435000D02*
X68427836Y-60435000D01*
X68212164Y-59715000D02*
X68427836Y-59715000D01*
%TO.C,FB1*%
X63592936Y-45360000D02*
X65047064Y-45360000D01*
X63592936Y-43540000D02*
X65047064Y-43540000D01*
%TO.C,C17*%
X123729420Y-83190000D02*
X124010580Y-83190000D01*
X123729420Y-84210000D02*
X124010580Y-84210000D01*
%TO.C,C7*%
X63379420Y-46240000D02*
X63660580Y-46240000D01*
X63379420Y-47260000D02*
X63660580Y-47260000D01*
%TO.C,C40*%
X101660001Y-54738564D02*
X101660001Y-54954236D01*
X102380001Y-54738564D02*
X102380001Y-54954236D01*
%TO.C,R1*%
X100350000Y-41336939D02*
X100350000Y-41644221D01*
X101110000Y-41336939D02*
X101110000Y-41644221D01*
%TO.C,D5*%
X138105000Y-85115000D02*
X135820000Y-85115000D01*
X138105000Y-86585000D02*
X138105000Y-85115000D01*
X135820000Y-86585000D02*
X138105000Y-86585000D01*
%TO.C,R3*%
X80366359Y-57670000D02*
X80673641Y-57670000D01*
X80366359Y-58430000D02*
X80673641Y-58430000D01*
%TO.C,C20*%
X71180000Y-83459420D02*
X71180000Y-83740580D01*
X70160000Y-83459420D02*
X70160000Y-83740580D01*
%TO.C,C6*%
X77277836Y-58840000D02*
X77062164Y-58840000D01*
X77277836Y-59560000D02*
X77062164Y-59560000D01*
%TO.C,C22*%
X119235300Y-84609420D02*
X119235300Y-84890580D01*
X120255300Y-84609420D02*
X120255300Y-84890580D01*
%TO.C,C29*%
X93180000Y-54742164D02*
X93180000Y-54957836D01*
X92460000Y-54742164D02*
X92460000Y-54957836D01*
%TO.C,C10*%
X123012164Y-40960000D02*
X123227836Y-40960000D01*
X123012164Y-40240000D02*
X123227836Y-40240000D01*
%TO.C,R2*%
X100473641Y-43430000D02*
X100166359Y-43430000D01*
X100473641Y-42670000D02*
X100166359Y-42670000D01*
%TO.C,R6*%
X81790000Y-58303641D02*
X81790000Y-57996359D01*
X82550000Y-58303641D02*
X82550000Y-57996359D01*
%TO.C,J2*%
X142380000Y-82550000D02*
X142380000Y-68630000D01*
X137370000Y-82550000D02*
X130920000Y-82550000D01*
X142380000Y-68630000D02*
X139270000Y-68630000D01*
X137370000Y-68630000D02*
X130920000Y-68630000D01*
X128010000Y-68630000D02*
X128720000Y-68630000D01*
X142380000Y-82550000D02*
X139270000Y-82550000D01*
X128010000Y-82550000D02*
X128720000Y-82550000D01*
X128010000Y-82550000D02*
X128010000Y-68630000D01*
%TO.C,C42*%
X79580000Y-43557836D02*
X79580000Y-43342164D01*
X78860000Y-43557836D02*
X78860000Y-43342164D01*
%TO.C,U2*%
X78394400Y-62159741D02*
X78394400Y-62575600D01*
X81645600Y-59740259D02*
X81645600Y-59324400D01*
X81645600Y-59324400D02*
X81229741Y-59324400D01*
X78810259Y-59324400D02*
X78394400Y-59324400D01*
X81645600Y-62575600D02*
X81645600Y-62159741D01*
X78394400Y-62575600D02*
X78810259Y-62575600D01*
X81229741Y-62575600D02*
X81645600Y-62575600D01*
X78394400Y-59324400D02*
X78394400Y-59740259D01*
G36*
X82331400Y-61390500D02*
G01*
X82077400Y-61390500D01*
X82077400Y-61009499D01*
X82331400Y-61009499D01*
X82331400Y-61390500D01*
G37*
D14*
X82331400Y-61390500D02*
X82077400Y-61390500D01*
X82077400Y-61009499D01*
X82331400Y-61009499D01*
X82331400Y-61390500D01*
D12*
%TO.C,C18*%
X132480000Y-86071937D02*
X132480000Y-95727500D01*
X121760000Y-95727500D02*
X125610000Y-95727500D01*
X130505000Y-84142500D02*
X129255000Y-84142500D01*
X131415563Y-85007500D02*
X128630000Y-85007500D01*
X121760000Y-86071937D02*
X121760000Y-95727500D01*
X122824437Y-85007500D02*
X125610000Y-85007500D01*
X132480000Y-95727500D02*
X128630000Y-95727500D01*
X131415563Y-85007500D02*
X132480000Y-86071937D01*
X129880000Y-83517500D02*
X129880000Y-84767500D01*
X122824437Y-85007500D02*
X121760000Y-86071937D01*
%TO.C,R4*%
X96400000Y-43196359D02*
X96400000Y-43503641D01*
X95640000Y-43196359D02*
X95640000Y-43503641D01*
%TO.C,C43*%
X75527836Y-49910000D02*
X75312164Y-49910000D01*
X75527836Y-49190000D02*
X75312164Y-49190000D01*
%TO.C,C27*%
X116955300Y-85909420D02*
X116955300Y-86190580D01*
X115935300Y-85909420D02*
X115935300Y-86190580D01*
%TO.C,C34*%
X99360000Y-55838564D02*
X99360000Y-56054236D01*
X100080000Y-55838564D02*
X100080000Y-56054236D01*
%TO.C,R17*%
X83140000Y-53203641D02*
X83140000Y-52896359D01*
X83900000Y-53203641D02*
X83900000Y-52896359D01*
%TO.C,J3*%
X128010000Y-46990000D02*
X128010000Y-33070000D01*
X128010000Y-33070000D02*
X128720000Y-33070000D01*
X142380000Y-46990000D02*
X142380000Y-33070000D01*
X128010000Y-46990000D02*
X128720000Y-46990000D01*
X137370000Y-46990000D02*
X130920000Y-46990000D01*
X137370000Y-33070000D02*
X130920000Y-33070000D01*
X142380000Y-33070000D02*
X139270000Y-33070000D01*
X142380000Y-46990000D02*
X139270000Y-46990000D01*
%TO.C,R23*%
X139453859Y-49870000D02*
X139761141Y-49870000D01*
X139453859Y-50630000D02*
X139761141Y-50630000D01*
D15*
%TO.C,U3*%
X81220000Y-54100000D02*
X80630000Y-54100000D01*
X77620000Y-54100000D02*
X78210000Y-54100000D01*
X77620000Y-45000000D02*
X78210000Y-45000000D01*
X81220000Y-45000000D02*
X80630000Y-45000000D01*
D16*
X82220000Y-53850000D02*
G75*
G03*
X82220000Y-53850000I-100000J0D01*
G01*
D12*
%TO.C,FB2*%
X123892936Y-80640000D02*
X125347064Y-80640000D01*
X123892936Y-82460000D02*
X125347064Y-82460000D01*
D13*
%TO.C,XTAL1*%
X89942400Y-56044960D02*
X89942400Y-55655040D01*
X87097600Y-55655040D02*
X87097600Y-56044960D01*
X86096200Y-54250000D02*
G75*
G03*
X86096200Y-54250000I-76200J0D01*
G01*
D12*
%TO.C,C2*%
X88673641Y-52970000D02*
X88366359Y-52970000D01*
X88673641Y-53730000D02*
X88366359Y-53730000D01*
%TO.C,R9*%
X75966359Y-60370000D02*
X76273641Y-60370000D01*
X75966359Y-61130000D02*
X76273641Y-61130000D01*
%TO.C,C14*%
X67762164Y-52840000D02*
X67977836Y-52840000D01*
X67762164Y-53560000D02*
X67977836Y-53560000D01*
%TO.C,Rlimit2*%
X119766359Y-47630000D02*
X120073641Y-47630000D01*
X119766359Y-46870000D02*
X120073641Y-46870000D01*
%TO.C,CR5*%
X124820000Y-77850000D02*
X126120000Y-77850000D01*
X124820000Y-75050000D02*
X125820000Y-75050000D01*
%TO.C,CR2*%
X65980000Y-53350000D02*
X64980000Y-53350000D01*
X65980000Y-50550000D02*
X64680000Y-50550000D01*
%TO.C,J6*%
X99690000Y-32495000D02*
X98360000Y-32495000D01*
X99690000Y-31165000D02*
X99690000Y-32495000D01*
X86870000Y-29835000D02*
X86870000Y-32495000D01*
X97090000Y-32495000D02*
X86870000Y-32495000D01*
X97090000Y-29835000D02*
X97090000Y-32495000D01*
X97090000Y-29835000D02*
X86870000Y-29835000D01*
%TO.C,C19*%
X68220000Y-83459420D02*
X68220000Y-83740580D01*
X67200000Y-83459420D02*
X67200000Y-83740580D01*
%TO.C,FB4*%
X68472936Y-81710000D02*
X69927064Y-81710000D01*
X68472936Y-79890000D02*
X69927064Y-79890000D01*
%TO.C,CR7*%
X124870000Y-42250000D02*
X126170000Y-42250000D01*
X124870000Y-39450000D02*
X125870000Y-39450000D01*
%TO.C,C21*%
X116930000Y-50409420D02*
X116930000Y-50690580D01*
X115910000Y-50409420D02*
X115910000Y-50690580D01*
%TO.C,C37*%
X99660000Y-45657836D02*
X99660000Y-45442164D01*
X100380000Y-45657836D02*
X100380000Y-45442164D01*
%TO.C,J1*%
X61790000Y-58600000D02*
X61790000Y-60100000D01*
X61790000Y-50600000D02*
X61790000Y-52100000D01*
X61790000Y-50600000D02*
X54530000Y-50600000D01*
X61790000Y-60100000D02*
X54530000Y-60100000D01*
%TO.C,FB3*%
X123892936Y-45040000D02*
X125347064Y-45040000D01*
X123892936Y-46860000D02*
X125347064Y-46860000D01*
%TO.C,C12*%
X52260000Y-62242164D02*
X52260000Y-62457836D01*
X52980000Y-62242164D02*
X52980000Y-62457836D01*
%TO.C,C11*%
X79770000Y-33651266D02*
X79770000Y-33932426D01*
X78750000Y-33651266D02*
X78750000Y-33932426D01*
%TO.C,J5*%
X89270000Y-95005000D02*
X96950000Y-95005000D01*
X89270000Y-95005000D02*
X89270000Y-92345000D01*
X86670000Y-92345000D02*
X88000000Y-92345000D01*
X86670000Y-93675000D02*
X86670000Y-92345000D01*
X89270000Y-92345000D02*
X96950000Y-92345000D01*
X96950000Y-95005000D02*
X96950000Y-92345000D01*
%TO.C,D1*%
X62815000Y-73535000D02*
X65100000Y-73535000D01*
X65100000Y-72065000D02*
X62815000Y-72065000D01*
X62815000Y-72065000D02*
X62815000Y-73535000D01*
%TO.C,R22*%
X118600000Y-45496359D02*
X118600000Y-45803641D01*
X117840000Y-45496359D02*
X117840000Y-45803641D01*
%TO.C,R11*%
X72953641Y-63420000D02*
X72646359Y-63420000D01*
X72953641Y-64180000D02*
X72646359Y-64180000D01*
%TO.C,C25*%
X95010001Y-75090580D02*
X95010001Y-74809420D01*
X96030001Y-75090580D02*
X96030001Y-74809420D01*
%TO.C,CR3*%
X65980000Y-60217500D02*
X64980000Y-60217500D01*
X65980000Y-57417500D02*
X64680000Y-57417500D01*
%TO.C,C15*%
X68212164Y-59435000D02*
X68427836Y-59435000D01*
X68212164Y-58715000D02*
X68427836Y-58715000D01*
%TO.C,R13*%
X71200000Y-67496359D02*
X71200000Y-67803641D01*
X70440000Y-67496359D02*
X70440000Y-67803641D01*
%TO.C,C9*%
X123012164Y-39960000D02*
X123227836Y-39960000D01*
X123012164Y-39240000D02*
X123227836Y-39240000D01*
%TO.C,C26*%
X92560581Y-69460000D02*
X92279421Y-69460000D01*
X92560581Y-68440000D02*
X92279421Y-68440000D01*
%TO.C,U5*%
X106620001Y-76860000D02*
X100610001Y-76860000D01*
X104370001Y-70040000D02*
X100610001Y-70040000D01*
X100610001Y-70040000D02*
X100610001Y-71300000D01*
X100610001Y-76860000D02*
X100610001Y-75600000D01*
%TO.C,D6*%
X137805000Y-49515000D02*
X135520000Y-49515000D01*
X137805000Y-50985000D02*
X137805000Y-49515000D01*
X135520000Y-50985000D02*
X137805000Y-50985000D01*
%TO.C,C5*%
X122962164Y-75840000D02*
X123177836Y-75840000D01*
X122962164Y-76560000D02*
X123177836Y-76560000D01*
%TO.C,C3*%
X102010000Y-41609420D02*
X102010000Y-41890580D01*
X103030000Y-41609420D02*
X103030000Y-41890580D01*
D15*
%TO.C,J4*%
X59450000Y-83900000D02*
X51000000Y-83900000D01*
X51000000Y-83900000D02*
X51000000Y-74900000D01*
X64500000Y-81750000D02*
X64500000Y-83900000D01*
X64500000Y-74900000D02*
X64500000Y-77050000D01*
X51000000Y-74900000D02*
X64500000Y-74900000D01*
X64500000Y-83900000D02*
X64150000Y-83900000D01*
D16*
X66400000Y-79400000D02*
G75*
G03*
X66400000Y-79400000I-100000J0D01*
G01*
%TD*%
M02*
