M48
; DRILL file {KiCad (6.0.11)} date Wed Sep 13 18:41:42 2023
; FORMAT={-:-/ absolute / inch / decimal}
; #@! TF.CreationDate,2023-09-13T18:41:42-04:00
; #@! TF.GenerationSoftware,Kicad,Pcbnew,(6.0.11)
; #@! TF.FileFunction,Plated,1,4,PTH
FMAT,2
INCH
; #@! TA.AperFunction,Plated,PTH,ViaDrill
T1C0.0079
; #@! TA.AperFunction,Plated,PTH,ViaDrill
T2C0.0118
; #@! TA.AperFunction,Plated,PTH,ComponentDrill
T3C0.0118
; #@! TA.AperFunction,Plated,PTH,ViaDrill
T4C0.0157
; #@! TA.AperFunction,Plated,PTH,ViaDrill
T5C0.0197
; #@! TA.AperFunction,Plated,PTH,ComponentDrill
T6C0.0197
; #@! TA.AperFunction,Plated,PTH,ViaDrill
T7C0.0213
; #@! TA.AperFunction,Plated,PTH,ComponentDrill
T8C0.0236
; #@! TA.AperFunction,Plated,PTH,ViaDrill
T9C0.0276
; #@! TA.AperFunction,Plated,PTH,ComponentDrill
T10C0.0276
; #@! TA.AperFunction,Plated,PTH,ComponentDrill
T11C0.0315
; #@! TA.AperFunction,Plated,PTH,ComponentDrill
T12C0.0394
; #@! TA.AperFunction,Plated,PTH,ComponentDrill
T13C0.1181
%
G90
G05
T1
X2.1189Y-2.4744
X2.2882Y-2.128
X2.3Y-2.2461
X2.302Y-2.2835
X2.3118Y-2.0945
X2.3118Y-2.1181
X2.3236Y-2.1575
X2.3236Y-2.1811
X2.3236Y-2.2362
X2.3236Y-2.2598
X2.3866Y-2.1791
X2.3886Y-2.0925
X2.3886Y-2.1161
X2.4493Y-2.0804
X2.4654Y-2.3051
X2.4772Y-2.1969
X2.4772Y-2.2205
X2.4772Y-2.3327
X2.4772Y-2.3563
X2.4811Y-2.4075
X2.4831Y-2.1201
X2.489Y-2.2461
X2.5165Y-2.0039
X2.5165Y-2.0276
X2.5165Y-2.063
X2.5165Y-2.0866
X2.5283Y-1.9783
X2.5283Y-2.1122
X2.5382Y-2.0453
X2.5402Y-2.4075
X2.6307Y-2.1791
X2.6622Y-2.2343
X2.6622Y-2.2598
X2.6622Y-2.2835
X2.6839Y-2.2953
X2.6897Y-2.1738
X2.7331Y-2.1752
X2.7685Y-2.3091
X2.7685Y-2.3337
X2.7685Y-2.3573
X2.7685Y-2.3819
X2.9654Y-1.7343
X2.9654Y-1.7579
X2.9654Y-1.7815
X2.9654Y-1.8051
X2.9772Y-1.8878
X2.9969Y-1.8198
X3.0215Y-1.8307
X3.0215Y-1.8543
X3.1386Y-2.498
X3.1386Y-2.5768
X3.2236Y-1.8504
X3.2331Y-1.9508
X3.2488Y-2.0531
X3.3512Y-1.7874
X3.3512Y-1.811
X3.3512Y-1.8346
X3.3512Y-1.8583
X3.4398Y-1.9449
X3.4398Y-1.9685
X3.4398Y-1.9921
X3.4398Y-2.0157
X3.5244Y-2.0
X3.5244Y-2.0588
X3.5441Y-2.0197
X3.5441Y-2.0433
X3.5539Y-1.872
X3.5539Y-1.8957
X3.5539Y-1.9193
X3.5539Y-1.9429
X3.6701Y-1.9941
X3.9585Y-2.2274
X3.9732Y-1.7772
X4.4496Y-1.7303
X4.4496Y-1.8091
X4.4496Y-2.8268
X4.4496Y-2.8504
X4.4496Y-2.874
X4.4496Y-2.8976
X4.4522Y-1.7565
X4.4522Y-1.7802
X4.8591Y-1.4257
X4.8591Y-1.4488
X4.8591Y-1.4724
X4.8591Y-1.4961
X4.8748Y-2.8504
X4.8748Y-2.874
X4.8748Y-2.9035
X4.9705Y-1.4312
X4.985Y-2.7618
X4.985Y-2.7913
X4.985Y-2.815
X4.985Y-2.8504
X4.985Y-2.874
X4.985Y-2.9075
X4.985Y-2.9429
X4.985Y-2.9685
X4.985Y-2.9921
X4.989Y-1.4488
X4.989Y-1.4724
X4.989Y-1.502
X4.9929Y-1.3602
X4.9929Y-1.3898
X4.9929Y-1.4134
X4.9969Y-1.5374
X4.9969Y-1.5669
X4.9969Y-1.5906
X5.0047Y-2.8366
T2
X2.5087Y-2.4902
X2.5559Y-1.9154
X2.5717Y-1.8406
X2.6307Y-2.3169
X2.6543Y-2.4508
X2.6654Y-3.3701
X2.6661Y-1.8366
X2.7638Y-2.5866
X2.7835Y-3.3701
X2.7882Y-2.7146
X2.9181Y-1.9508
X3.0165Y-1.9508
X3.0874Y-1.6949
X3.1504Y-1.7264
X3.174Y-1.6594
X3.2016Y-2.25
X3.2016Y-2.3209
X3.2252Y-1.7894
X3.2528Y-1.9311
X3.2606Y-1.8445
X3.2882Y-2.1417
X3.3108Y-1.876
X3.5756Y-2.0059
X3.5795Y-2.1043
X3.5992Y-1.8681
X3.6287Y-2.252
X3.6543Y-1.7815
X3.6543Y-2.1004
X3.6622Y-1.6083
X3.7016Y-1.8366
X3.7213Y-1.6083
X3.7724Y-2.2146
X3.7803Y-1.6555
X3.7961Y-2.2736
X3.8354Y-1.6555
X3.8433Y-1.8248
X3.8669Y-1.7979
X3.9024Y-1.75
X3.9142Y-1.6043
X3.9339Y-2.2618
X3.989Y-2.1634
X4.0244Y-2.0571
X4.0323Y-1.8602
X4.0323Y-1.9547
X4.0402Y-1.7224
X4.048Y-2.1516
X4.0709Y-2.0484
X4.1031Y-1.687
X4.5561Y-1.8406
X4.5598Y-3.2343
X4.7803Y-1.9035
X4.7803Y-3.2972
X4.8906Y-2.8287
X4.985Y-3.0217
X4.9929Y-1.6161
X5.2843Y-1.9783
X5.2961Y-3.3799
T3
X3.1071Y-1.8327
X3.1071Y-1.8917
X3.1071Y-1.9508
X3.1071Y-2.0098
X3.1071Y-2.0689
X3.1268Y-1.8622
X3.1268Y-1.9213
X3.1268Y-1.9803
X3.1268Y-2.0394
X3.1465Y-1.8327
X3.1465Y-1.8917
X3.1465Y-1.9508
X3.1465Y-2.0098
X3.1465Y-2.0689
T4
X2.3504Y-2.8673
X2.7252Y-1.7264
X2.9811Y-2.3287
X3.0165Y-2.5059
X3.0598Y-2.2933
X3.0598Y-2.7067
X3.0638Y-2.5059
X3.0756Y-1.376
X3.115Y-2.2854
X3.2055Y-1.1949
X3.3512Y-2.8917
X3.4142Y-1.565
X3.4685Y-3.3583
X3.5598Y-2.7146
X3.6858Y-2.6319
X3.8433Y-2.8917
X3.9654Y-1.5728
X4.048Y-2.7146
X4.1819Y-2.6673
X4.2421Y-2.8681
X4.548Y-1.8839
X4.548Y-3.2815
X4.5835Y-2.0689
X4.5845Y-3.4636
X4.611Y-1.7736
X4.6142Y-3.1575
X4.7134Y-2.0217
X4.7173Y-3.4232
X4.7764Y-1.8602
X4.7803Y-3.2539
X4.9575Y-1.876
X4.9575Y-3.2776
X5.0874Y-2.3957
X5.0992Y-3.8051
X5.5559Y-1.9783
X5.5559Y-3.3799
T5
X3.1504Y-2.3996
X3.7724Y-1.9311
X3.7724Y-1.9665
X3.7724Y-2.002
X3.7724Y-2.0374
X3.7724Y-2.0728
X3.8079Y-1.9311
X3.8079Y-1.9665
X3.8079Y-2.002
X3.8079Y-2.0374
X3.8079Y-2.0728
X3.8433Y-1.9311
X3.8433Y-1.9665
X3.8433Y-2.0374
X3.8433Y-2.0728
X3.8787Y-1.9311
X3.8787Y-1.9665
X3.8787Y-2.002
X3.8787Y-2.0374
X3.8787Y-2.0728
X3.9142Y-1.9311
X3.9142Y-1.9665
X3.9142Y-2.002
X3.9142Y-2.0374
X3.9142Y-2.0728
T6
X2.1051Y-3.6398
X2.1161Y-1.2323
X2.1311Y-3.5771
X2.1311Y-3.7024
X2.1421Y-1.1696
X2.1421Y-1.2949
X2.1937Y-3.5512
X2.1937Y-3.7283
X2.2047Y-1.1437
X2.2047Y-1.3209
X2.2563Y-3.5771
X2.2563Y-3.7024
X2.2674Y-1.1696
X2.2674Y-1.2949
X2.2823Y-3.6398
X2.2933Y-1.2323
X4.2146Y-3.6378
X4.2217Y-1.2323
X4.2405Y-3.5752
X4.2405Y-3.7004
X4.2476Y-1.1696
X4.2476Y-1.2949
X4.3031Y-3.5492
X4.3031Y-3.7264
X4.3102Y-1.1437
X4.3102Y-1.3209
X4.3658Y-3.5752
X4.3658Y-3.7004
X4.3729Y-1.1696
X4.3729Y-1.2949
X4.3917Y-3.6378
X4.3988Y-1.2323
X5.3602Y-2.3622
X5.3862Y-2.2996
X5.3862Y-2.4248
X5.4488Y-2.2736
X5.4488Y-2.4508
X5.5115Y-2.2996
X5.5115Y-2.4248
X5.5374Y-2.3622
T7
X3.8433Y-2.002
T9
X2.8504Y-3.1811
X3.7921Y-3.0689
X4.2803Y-3.0571
X4.5126Y-3.3563
X4.5165Y-1.9587
T10
X5.0815Y-1.4185
X5.0815Y-1.4972
X5.0815Y-1.576
X5.0815Y-1.6547
X5.0815Y-1.7335
X5.0815Y-2.8185
X5.0815Y-2.8972
X5.0815Y-2.976
X5.0815Y-3.0547
X5.0815Y-3.1335
X5.1406Y-1.4382
X5.1406Y-1.5366
X5.1406Y-1.6154
X5.1406Y-1.7138
X5.1406Y-2.8382
X5.1406Y-2.9366
X5.1406Y-3.0154
X5.1406Y-3.1138
T12
X3.4646Y-3.688
X3.4724Y-1.227
X3.5646Y-3.688
X3.5724Y-1.227
X3.6646Y-3.688
X3.6724Y-1.227
X3.7646Y-3.688
X3.7724Y-1.227
X3.8724Y-1.227
T13
X2.1937Y-3.6398
X2.2047Y-1.2323
X4.3031Y-3.6378
X4.3102Y-1.2323
X5.4488Y-2.3622
T6
G00X2.1213Y-2.0024
M15
G01X2.0976Y-2.0024
M16
G05
G00X2.1213Y-2.3559
M15
G01X2.0976Y-2.3559
M16
G05
G00X2.3555Y-2.0165
M15
G01X2.3319Y-2.0165
M16
G05
G00X2.3555Y-2.3417
M15
G01X2.3319Y-2.3417
M16
G05
T8
G00X5.0894Y-1.324
M15
G01X5.1327Y-1.324
M16
G05
G00X5.0894Y-1.828
M15
G01X5.1327Y-1.828
M16
G05
G00X5.0894Y-2.724
M15
G01X5.1327Y-2.724
M16
G05
G00X5.0894Y-3.228
M15
G01X5.1327Y-3.228
M16
G05
G00X5.4299Y-1.324
M15
G01X5.4614Y-1.324
M16
G05
G00X5.4299Y-1.828
M15
G01X5.4614Y-1.828
M16
G05
G00X5.4299Y-2.724
M15
G01X5.4614Y-2.724
M16
G05
G00X5.4299Y-3.228
M15
G01X5.4614Y-3.228
M16
G05
T11
G00X2.3031Y-3.0827
M15
G01X2.3031Y-3.1693
M16
G05
G00X2.3898Y-3.3071
M15
G01X2.4764Y-3.3071
M16
G05
G00X2.5433Y-3.0827
M15
G01X2.5433Y-3.1693
M16
G05
T0
M30
